<svg xmlns="http://www.w3.org/2000/svg" width="1800" height="1200" viewBox="0 0 1800 1200" version="1.1"><path d="M 313.131 321.516 C 302.642 324.454, 295.050 332.857, 292.519 344.331 C 291.124 350.653, 290.970 363.260, 291.218 451 C 291.477 542.377, 291.642 550.914, 293.235 555.570 C 296.429 564.902, 303.456 571.573, 313.111 574.440 C 320.802 576.724, 445.989 576.786, 453.655 574.510 C 463.880 571.473, 471.652 563.135, 473.993 552.688 C 474.632 549.835, 475.308 546.998, 475.495 546.384 C 475.681 545.771, 478.459 547.731, 481.667 550.740 C 499.921 567.860, 521.502 576.776, 547 577.732 C 558.164 578.150, 560.671 577.912, 570.455 575.499 C 576.480 574.013, 584.679 571.203, 588.673 569.254 L 595.937 565.710 599.857 569.252 C 603.977 572.974, 612.221 576.009, 618.154 575.988 C 622.961 575.971, 631.371 573.552, 635.506 570.996 C 642.780 566.501, 649 555.125, 649 546.318 C 649 541.852, 650.313 542.141, 653.936 547.407 C 663.496 561.301, 678.959 570.675, 700.120 575.404 C 730.638 582.223, 759.947 575.396, 778.807 557.076 C 786.841 549.271, 794.016 536.003, 795.618 525.990 C 795.969 523.795, 796.536 522.016, 796.878 522.035 C 797.220 522.055, 799.601 525.542, 802.168 529.785 C 809.172 541.361, 816.832 549.989, 826.663 557.378 C 844.372 570.687, 861.928 576.858, 884.500 577.706 C 896.043 578.139, 898.845 577.894, 909.500 575.515 C 923.375 572.416, 936.285 566.740, 945.719 559.590 C 952.530 554.428, 959.328 547.184, 961.756 542.500 C 963.750 538.654, 965.973 530.324, 965.988 526.641 C 965.998 524.177, 966.809 525.014, 971.849 532.688 C 997.017 571.017, 1041.418 586.576, 1087 573.038 C 1094.455 570.824, 1108.896 562.611, 1117.459 555.715 C 1127.877 547.325, 1138.074 534.567, 1143.759 522.807 C 1145.817 518.550, 1147.725 515.085, 1148 515.106 C 1148.275 515.127, 1150.455 519.131, 1152.844 524.004 C 1164.778 548.345, 1188.305 567.372, 1215.500 574.676 C 1224.160 577.002, 1227.510 577.371, 1240.500 577.431 C 1253.098 577.489, 1257.101 577.113, 1265.500 575.083 C 1278.401 571.965, 1289.456 566.832, 1299.669 559.218 C 1312.462 549.681, 1319 539.407, 1319 528.841 C 1319 526.728, 1319.375 525, 1319.834 525 C 1320.292 525, 1322.979 528.549, 1325.805 532.888 C 1332.712 543.493, 1339.886 551.173, 1349.500 558.256 C 1367.223 571.313, 1387.199 577.998, 1408.500 577.999 C 1454.954 578.002, 1493.689 547.297, 1505.184 501.359 C 1508.593 487.734, 1508.397 468.065, 1504.712 454.154 C 1499.794 435.586, 1492.358 422.242, 1479.637 409.159 C 1464.769 393.867, 1449.143 385.558, 1425.670 380.463 C 1409.581 376.971, 1385.102 380.102, 1367.800 387.865 C 1351.675 395.100, 1334.594 409.834, 1325.618 424.250 C 1322.964 428.512, 1320.363 432, 1319.837 432 C 1319.312 432, 1319.128 431.602, 1319.428 431.116 C 1320.469 429.432, 1317.816 418.479, 1315.196 413.642 C 1311.889 407.536, 1301.373 397.765, 1292.287 392.355 C 1283.667 387.223, 1274.599 383.925, 1261.073 381.001 C 1252.220 379.088, 1248.748 378.830, 1238.073 379.292 C 1231.158 379.591, 1223.925 380.291, 1222 380.846 C 1220.075 381.402, 1215.575 382.648, 1212 383.616 C 1198.561 387.253, 1185.033 395.204, 1173.214 406.413 C 1163.942 415.206, 1157.830 423.332, 1152.654 433.750 C 1150.399 438.288, 1148.317 441.969, 1148.027 441.932 C 1147.737 441.894, 1145.798 438.387, 1143.717 434.138 C 1127.385 400.783, 1092.336 379, 1055 379 C 1040.810 379, 1023.721 382.974, 1011.671 389.077 C 995.392 397.322, 981.750 409.367, 972.042 424.066 L 966.385 432.633 965.347 426.044 C 964 417.488, 961.822 413.060, 955.622 406.277 C 943.367 392.867, 929.435 385.589, 907.140 380.948 C 882.998 375.923, 856.171 380.960, 834.223 394.640 C 819.709 403.687, 806.132 418.803, 798.005 434.965 C 793.930 443.068, 789.349 460.980, 788.419 472.446 L 787.710 481.187 782.605 475.654 C 772.542 464.749, 760.781 457.970, 740 451.098 C 714.246 442.582, 712.495 441.843, 714.543 440.345 C 717.082 438.489, 730.082 438.590, 734.656 440.501 C 736.632 441.326, 741.017 443.978, 744.401 446.392 C 753.682 453.015, 760.169 454.327, 769.677 451.503 C 778.732 448.814, 785.798 441.647, 788.476 432.434 C 790.381 425.882, 790.390 422.593, 788.520 415.417 C 785.823 405.059, 775.531 394.185, 762.686 388.121 C 749.630 381.956, 728.043 378.334, 714.404 380.018 C 696.449 382.236, 682.937 387.301, 672.523 395.719 C 660.953 405.071, 654.984 415.240, 651.806 431.009 C 649.811 440.907, 649.800 441.497, 651.445 450.359 C 656.200 475.991, 672.503 490.907, 709.580 503.550 C 722.556 507.975, 735 513.492, 735 514.821 C 735 515.344, 733.353 516.554, 731.340 517.509 C 723.177 521.382, 707.722 517.320, 701.351 509.626 C 696.834 504.171, 688.915 499.440, 681.094 497.523 C 674.375 495.876, 673.630 495.875, 666.984 497.504 C 661.389 498.875, 658.979 500.112, 655.087 503.612 C 652.403 506.025, 649.935 508, 649.603 508 C 649.271 508, 649 499.183, 649 488.407 C 649 466.405, 647.276 454.813, 641.959 441.077 C 633.645 419.599, 614.975 399.576, 593.423 389.027 C 561.658 373.479, 524.507 376.277, 494 396.515 C 486.190 401.696, 474.440 413.391, 468.261 422.133 C 453.089 443.598, 447.416 473.293, 453.421 499.810 C 454.753 505.689, 456.340 511.800, 456.949 513.389 C 457.558 514.977, 457.878 516.455, 457.661 516.673 C 457.443 516.890, 455.068 516.550, 452.383 515.917 C 446.534 514.538, 443.663 514.455, 392.750 514.200 L 353 514 353 432.182 C 353 354.889, 352.895 349.963, 351.092 343.098 C 346.662 326.223, 330.050 316.779, 313.131 321.516 M 533.252 444.510 C 503.650 459.320, 504.435 499.721, 534.603 513.975 C 540.291 516.662, 542.038 517, 550.253 516.999 C 558.424 516.999, 560.228 516.654, 565.760 514.037 C 573.832 510.218, 580.894 503.104, 584.859 494.796 C 587.670 488.905, 588 487.256, 588 479.085 C 588 471.151, 587.621 469.120, 585.103 463.568 C 581.173 454.899, 575.276 448.777, 566.748 444.510 C 560.167 441.218, 559.128 441, 550 441 C 540.872 441, 539.833 441.218, 533.252 444.510 M 871 443.967 C 864.092 447.572, 855.978 455.837, 852.314 463 C 849.783 467.947, 849.500 469.506, 849.500 478.500 C 849.500 487.583, 849.770 489.033, 852.441 494.308 C 856.289 501.909, 863.659 509.284, 871.332 513.211 C 876.908 516.065, 878.364 516.368, 886.500 516.364 C 897.330 516.358, 901.199 514.877, 913.260 506.122 C 923.793 498.476, 932.019 496.037, 940.829 497.946 C 946.666 499.211, 952.433 502.325, 957.250 506.812 C 960.565 509.900, 960.609 509.380, 958 498 C 956.702 492.337, 956.051 485.829, 956.051 478.500 C 956.051 471.171, 956.702 464.663, 958 459 C 960.668 447.361, 960.634 447.241, 955.750 451.232 C 950.111 455.840, 946.609 457.545, 940 458.898 C 932.057 460.526, 923.391 457.952, 914.335 451.278 C 902.174 442.314, 898.615 440.993, 886.783 441.048 C 877.455 441.092, 875.989 441.363, 871 443.967 M 1038.252 444.510 C 1017.965 454.659, 1010.610 478.013, 1021.532 497.604 C 1025.658 505.007, 1030.729 509.755, 1038.587 513.576 C 1043.563 515.995, 1046.017 516.508, 1054.077 516.814 C 1063.003 517.152, 1064.109 516.971, 1070.334 514.148 C 1078.427 510.478, 1085.674 503.402, 1089.668 495.268 C 1092.055 490.406, 1092.553 487.996, 1092.838 479.923 C 1093.152 471.050, 1092.957 469.861, 1090.192 463.763 C 1086.176 454.905, 1080.330 448.804, 1071.748 444.510 C 1065.167 441.218, 1064.128 441, 1055 441 C 1045.872 441, 1044.833 441.218, 1038.252 444.510 M 1224 444.503 C 1195.596 459.610, 1195.994 498.802, 1224.695 513.049 C 1230.983 516.171, 1232.183 516.420, 1240.500 516.327 C 1251.418 516.205, 1255.579 514.604, 1267.522 505.926 C 1278.025 498.296, 1285.174 496.211, 1294.500 498.058 C 1300.643 499.276, 1306.376 502.271, 1311.250 506.812 C 1312.763 508.221, 1314 509.156, 1314 508.890 C 1314 508.624, 1313.042 504.152, 1311.871 498.953 C 1308.991 486.168, 1308.992 470.778, 1311.873 458.261 C 1313.043 453.179, 1314 448.792, 1314 448.513 C 1314 448.233, 1311.243 450.034, 1307.872 452.515 C 1304.502 454.996, 1300.565 457.290, 1299.122 457.613 C 1297.680 457.936, 1294.857 458.611, 1292.850 459.112 C 1290.324 459.743, 1287.376 459.598, 1283.277 458.642 C 1276.148 456.979, 1274.262 456.036, 1266.515 450.258 C 1255.624 442.137, 1252.447 440.997, 1240.783 441.023 C 1230.996 441.044, 1230.187 441.212, 1224 444.503 M 1395.500 442.722 C 1385.893 446.610, 1377.472 454.587, 1373.167 463.880 C 1370.915 468.739, 1370.572 470.787, 1370.629 479 C 1370.687 487.267, 1371.058 489.252, 1373.487 494.297 C 1377.612 502.862, 1383.912 509.317, 1392.190 513.459 C 1398.784 516.758, 1399.910 517, 1408.632 517 C 1416.996 517, 1418.685 516.674, 1424.464 513.944 C 1432.646 510.077, 1438.962 503.961, 1443.146 495.851 C 1446.225 489.883, 1446.424 488.867, 1446.461 479 C 1446.496 469.514, 1446.233 467.957, 1443.737 462.876 C 1439.550 454.353, 1433.931 448.604, 1425.823 444.548 C 1419.138 441.203, 1418.180 441.003, 1409.116 441.052 C 1402.675 441.086, 1398.179 441.637, 1395.500 442.722 M 1152.664 586.250 C 1148.676 589.848, 1147.650 591.574, 1145.976 597.497 C 1144.889 601.345, 1143.993 605.845, 1143.985 607.497 C 1143.959 612.495, 1142.614 613.654, 1139.856 611.053 C 1136.727 608.102, 1133.649 606.581, 1126.846 604.625 C 1122.087 603.257, 1115.437 603.002, 1084.846 603.012 C 1046.580 603.024, 1043.073 603.357, 1034.387 607.798 C 1032.126 608.954, 1028.249 612.154, 1025.772 614.908 L 1021.270 619.916 1019.020 617.522 C 1015.656 613.940, 1004.532 608.446, 995.500 605.906 C 988.593 603.963, 984.478 603.600, 965.382 603.246 C 944.922 602.868, 942.719 602.999, 935.997 605.001 C 929.700 606.876, 927.893 607.988, 922.456 613.333 C 918.369 617.351, 915.743 620.894, 914.920 623.500 C 914.147 625.952, 913.432 636.402, 913.074 650.500 C 912.606 668.885, 912.260 672.998, 911.346 671 C 910.718 669.625, 908.157 663.550, 905.656 657.500 C 903.155 651.450, 900.037 644.250, 898.727 641.500 C 897.417 638.750, 894.805 632.675, 892.922 628 C 890.195 621.227, 888.281 618.249, 883.500 613.342 C 878.157 607.857, 876.680 606.942, 870.005 604.976 C 863.606 603.092, 861.823 602.928, 857.807 603.855 C 845.225 606.760, 836.434 614.543, 831.568 627.088 C 829.987 631.165, 827.606 636.750, 826.276 639.500 C 824.947 642.250, 822.077 648.933, 819.897 654.352 C 817.718 659.770, 814.846 666.295, 813.514 668.852 L 811.093 673.500 811.047 651.409 C 810.994 626.286, 810.331 622.682, 804.451 615.505 C 799.891 609.941, 794.595 606.707, 786.278 604.408 C 780.371 602.775, 779.727 602.777, 773.523 604.456 C 764.664 606.854, 761.227 609.596, 746.914 625.679 C 740.148 633.280, 734.275 639.500, 733.862 639.500 C 733.449 639.500, 727.569 633.215, 720.795 625.533 C 714.021 617.851, 706.953 610.537, 705.087 609.280 C 703.222 608.023, 698.544 606.056, 694.693 604.909 C 687.910 602.889, 687.499 602.877, 681.595 604.527 C 672.977 606.935, 669.015 609.176, 664.272 614.321 C 657.193 622.001, 656.715 624.803, 656.067 662.396 C 655.565 691.547, 655.348 694.849, 654.167 691.396 C 651.032 682.235, 647.724 673.362, 646.769 671.557 C 646.204 670.489, 643.586 663.514, 640.950 656.057 C 631.490 629.293, 627.948 620.533, 623.771 613.571 C 618.632 605.005, 611.998 597.669, 606.450 594.418 C 597.927 589.423, 595.197 589.112, 545 587.421 C 490.033 585.569, 485.848 585.697, 482.192 589.353 C 479.703 591.843, 479.606 592.431, 478.849 609.708 C 477.958 630.049, 478.262 632.958, 481.607 636.101 C 483.844 638.202, 485.266 638.425, 500.729 639.097 C 509.917 639.496, 530.161 640.150, 545.714 640.549 C 564.302 641.026, 574.531 641.668, 575.562 642.421 C 577.078 643.531, 586.036 667.552, 592.184 687 C 593.836 692.225, 595.792 697.850, 596.531 699.500 C 598.629 704.184, 607 727.838, 607 729.083 C 607 729.696, 607.675 731.728, 608.500 733.599 C 609.325 735.469, 610.675 738.531, 611.500 740.401 C 612.325 742.272, 613 744.334, 613 744.983 C 613 746.435, 617.013 758.446, 621.526 770.500 C 625.415 780.890, 628.256 789.499, 630.929 799 C 631.626 801.475, 632.571 803.959, 633.029 804.520 C 633.487 805.080, 634.848 808.680, 636.052 812.520 C 637.256 816.359, 639.112 821.975, 640.176 825 C 641.240 828.025, 642.330 831.573, 642.599 832.885 C 642.868 834.196, 643.813 836.671, 644.699 838.384 C 646.278 841.439, 650.747 854.558, 651.551 858.500 C 651.775 859.600, 652.351 861.400, 652.832 862.500 C 654.838 867.092, 670.997 913.801, 675.665 928.500 C 677.586 934.550, 679.855 941.075, 680.707 943 C 681.560 944.925, 684.476 953.250, 687.189 961.500 C 692.207 976.764, 695.255 982.627, 699.677 985.524 C 703.173 987.815, 704.915 988.098, 719.331 988.719 C 731.826 989.257, 732.145 989.327, 731.496 991.386 C 731.129 992.549, 730.588 997.177, 730.293 1001.671 C 729.695 1010.792, 732.100 1021.050, 736.436 1027.876 C 739.660 1032.952, 748.916 1042.328, 752.500 1044.149 C 754.150 1044.987, 757.300 1046.720, 759.500 1047.999 C 762.957 1050.009, 765.062 1050.360, 775 1050.587 C 786.137 1050.840, 786.705 1050.748, 793 1047.674 C 796.575 1045.928, 799.725 1044.272, 800 1043.994 C 800.275 1043.715, 802.525 1041.961, 805 1040.095 C 810.480 1035.963, 816.424 1028.586, 818.934 1022.799 C 821.961 1015.819, 823.272 1005.412, 822.063 997.958 C 821.487 994.406, 821.012 990.938, 821.008 990.250 C 821.002 989.257, 846.963 989, 947.500 989 C 1019.376 989, 1074 989.379, 1074 989.877 C 1074 990.360, 1073.278 993.953, 1072.395 997.863 C 1069.360 1011.300, 1073.322 1023.909, 1084.113 1035.159 C 1091.583 1042.947, 1096.404 1045.600, 1106.652 1047.560 C 1113.231 1048.819, 1115.017 1048.807, 1121.534 1047.461 C 1131.319 1045.440, 1136.263 1042.749, 1143.500 1035.506 C 1149.633 1029.367, 1154.101 1021.634, 1155.638 1014.500 C 1156.502 1010.489, 1155.882 998.264, 1154.514 992.334 L 1153.784 989.169 1171.142 988.828 C 1190.745 988.443, 1194.340 987.378, 1198.840 980.626 C 1201.061 977.292, 1201.177 976.285, 1201.132 960.650 C 1201.068 938.293, 1199.648 933.419, 1191.941 929.087 L 1187.675 926.689 964.587 927.095 L 741.500 927.500 738.730 919.500 C 737.207 915.100, 735.787 910.825, 735.574 910 C 735.362 909.175, 734.858 907.207, 734.454 905.626 L 733.721 902.752 832.610 903.373 C 887 903.715, 983.925 904.242, 1048 904.543 C 1161.964 905.078, 1164.661 905.047, 1171.904 903.105 C 1183.739 899.932, 1192.600 892.911, 1198.378 882.129 C 1201.335 876.612, 1205.222 865.169, 1204.524 864.039 C 1204.309 863.690, 1204.526 858.476, 1205.007 852.453 C 1205.488 846.429, 1206.132 837.450, 1206.438 832.500 C 1206.745 827.550, 1207.433 818.325, 1207.968 812 C 1208.503 805.675, 1209.427 793.525, 1210.020 785 C 1210.614 776.475, 1211.280 767.250, 1211.500 764.500 C 1211.721 761.750, 1212.156 755.450, 1212.469 750.500 C 1212.781 745.550, 1213.261 739.250, 1213.535 736.500 C 1213.809 733.750, 1214.242 728.125, 1214.498 724 C 1214.753 719.875, 1215.431 713.125, 1216.005 709 C 1216.578 704.875, 1218.537 679.225, 1220.358 652 C 1224.089 596.207, 1224.032 594.748, 1217.861 588.327 C 1211.802 582.022, 1211.681 582, 1183.237 582 L 1157.375 582 1152.664 586.250 M 679.378 620.490 C 671.093 625.456, 671.536 622.328, 671.346 677.250 C 671.254 704.063, 671.546 726, 671.996 726 C 672.445 726, 672.578 726.898, 672.291 727.996 C 672.004 729.094, 672.538 731.613, 673.477 733.594 C 675.803 738.494, 681.582 741.036, 689.375 740.586 C 694.332 740.300, 695.629 739.783, 698.591 736.912 C 700.487 735.074, 702.482 731.923, 703.025 729.909 C 703.567 727.895, 703.988 715.336, 703.962 702.001 C 703.935 688.665, 704.143 677.524, 704.423 677.243 C 704.704 676.962, 706.411 678.452, 708.217 680.554 C 710.023 682.655, 713.084 685.978, 715.020 687.937 C 716.956 689.897, 719.842 693.213, 721.433 695.308 C 723.163 697.585, 725.466 699.343, 727.163 699.683 C 728.723 699.995, 730 700.644, 730 701.125 C 730 701.606, 731.618 702, 733.596 702 C 737.564 702, 741.272 699.813, 747.710 693.676 C 751.545 690.019, 751.768 689.546, 750.210 688.363 C 748.678 687.199, 748.793 687.060, 751.314 687.032 C 753.399 687.008, 755.398 685.639, 759.026 681.750 C 763.247 677.226, 763.929 676.811, 763.962 678.750 C 763.984 680.066, 764.622 681, 765.500 681 C 766.325 681, 767 681.450, 767 682 C 767 682.550, 766.316 683, 765.480 683 C 764.162 683, 763.975 685.875, 764.078 704.500 C 764.185 723.759, 764.369 726.003, 765.848 726.032 C 767.322 726.060, 767.308 726.209, 765.718 727.415 C 764.174 728.586, 764.103 729.149, 765.182 731.633 C 766.964 735.735, 771.783 739.864, 776.166 741.045 C 781.112 742.376, 789.221 739.860, 792.013 736.127 C 793.094 734.682, 794.394 732.998, 794.903 732.384 C 796.397 730.582, 796.594 722.985, 795.169 722.105 C 794.155 721.478, 794.162 721.111, 795.203 720.247 C 796.932 718.811, 796.887 634.671, 795.153 628.435 C 792.557 619.100, 782.284 615.264, 772.817 620.093 C 770.560 621.245, 767.541 623.590, 766.107 625.305 C 764.673 627.020, 759.675 632.745, 755 638.028 C 750.325 643.310, 743.851 650.640, 740.612 654.316 C 737.374 657.992, 734.285 661, 733.747 661 C 733.210 661, 731.584 659.611, 730.135 657.913 C 728.686 656.216, 725.025 652.037, 722 648.627 C 707.607 632.403, 704.019 628.294, 701.966 625.684 C 695.947 618.032, 686.935 615.960, 679.378 620.490 M 852.180 621.578 C 849.881 623.546, 848 625.551, 848 626.033 C 848 626.515, 846.679 629.743, 845.064 633.205 C 843.450 636.667, 840.058 644.450, 837.527 650.500 C 834.997 656.550, 832.315 662.850, 831.569 664.500 C 829.250 669.625, 826.444 676.113, 822.053 686.500 C 819.727 692, 816.113 700.325, 814.021 705 C 809.318 715.510, 808.951 716.451, 807.455 721.868 C 806.095 726.794, 806.556 730.108, 808.497 729.363 C 809.213 729.088, 810.095 729.344, 810.458 729.932 C 810.847 730.561, 810.248 731, 809.002 731 C 806.915 731, 806.911 731.041, 808.693 734.108 C 811.541 739.006, 824.607 744.064, 826.500 741 C 826.840 740.450, 827.925 740, 828.911 740 C 832.749 740, 839.447 731.124, 835.750 730.937 C 835.063 730.902, 835.555 730.451, 836.844 729.934 C 838.134 729.417, 839.410 728.148, 839.680 727.114 C 840.348 724.561, 843.197 724.275, 864.694 724.607 C 884.650 724.916, 885.849 725.277, 887.396 731.440 C 888.344 735.219, 892.705 739, 896.115 739 C 898.213 739, 898.789 739.385, 898.362 740.500 C 896.980 744.102, 909.649 740.750, 913.622 736.463 C 919.937 729.649, 919.594 725.708, 911.014 706.500 C 910.032 704.300, 908.238 700.250, 907.028 697.500 C 905.818 694.750, 904.028 690.700, 903.049 688.500 C 899.031 679.466, 886.196 649.682, 884.949 646.500 C 883.997 644.072, 879.891 634.908, 876.531 627.715 C 874.524 623.415, 873.212 622.016, 869.505 620.215 C 862.506 616.814, 857.263 617.227, 852.180 621.578 M 934.900 621.160 C 929.651 624.930, 928.845 625.959, 929.381 628.202 C 929.605 629.138, 929.401 630.038, 928.927 630.202 C 928.151 630.471, 927.858 647.436, 927.963 686.184 L 928 699.867 930.750 700.284 L 933.500 700.700 930.750 700.850 L 928 701 928 715.386 C 928 732.041, 928.463 733.446, 935.622 738.536 C 941.363 742.618, 945.034 742.929, 951.336 739.867 C 957.648 736.801, 959.401 733.288, 960 722.500 L 960.500 713.500 968.134 713.210 L 975.769 712.920 979.115 717.145 C 980.956 719.469, 983.370 722.329, 984.481 723.500 C 985.591 724.671, 989.143 728.622, 992.374 732.279 C 999.571 740.427, 1004.455 742.730, 1010.218 740.694 C 1015.056 738.984, 1021.124 733.487, 1020.363 731.503 C 1020.046 730.676, 1020.284 730, 1020.893 730 C 1021.547 730, 1021.998 728.058, 1021.996 725.250 C 1021.992 719.953, 1020.648 717.318, 1013.707 709.002 L 1009.118 703.503 1011.233 701.252 C 1012.778 699.607, 1012.964 698.988, 1011.924 698.955 C 1011.141 698.930, 1011.710 698.368, 1013.189 697.705 C 1020.865 694.266, 1028.704 674.649, 1027.492 661.913 C 1026.178 648.116, 1018.993 634.151, 1013.070 633.884 C 1011.279 633.803, 1011.048 633.626, 1012.305 633.300 C 1015.192 632.552, 1013.821 630.879, 1006.680 626.436 C 994.561 618.896, 989.910 618, 962.872 618 L 939.300 618 934.900 621.160 M 1041.241 619.987 C 1038.004 621.968, 1034.011 627.355, 1034.004 629.750 C 1034.002 630.438, 1034.787 631.029, 1035.750 631.063 C 1037.091 631.112, 1036.974 631.338, 1035.250 632.031 C 1034.013 632.529, 1033 633.596, 1033 634.403 C 1033 636.239, 1034.886 641.284, 1035.833 641.980 C 1036.222 642.266, 1037.064 643.692, 1037.703 645.148 C 1038.713 647.451, 1039.755 647.936, 1045.682 648.867 C 1049.432 649.456, 1055.987 650.230, 1060.250 650.586 C 1064.513 650.943, 1068.031 651.520, 1068.070 651.867 C 1068.108 652.215, 1068.234 669.825, 1068.349 691 C 1068.464 712.175, 1068.909 730.063, 1069.338 730.750 C 1069.767 731.438, 1070.879 732.007, 1071.809 732.015 C 1073.231 732.028, 1073.268 732.177, 1072.040 732.954 C 1069.206 734.747, 1075.845 739.777, 1083.204 741.414 C 1086.864 742.228, 1096.060 738.083, 1098.351 734.588 C 1100.599 731.156, 1101.925 718, 1100.023 718 C 1099.037 718, 1099.019 717.682, 1099.942 716.570 C 1101.318 714.912, 1101.963 704.095, 1100.732 703.334 C 1100.276 703.052, 1100.371 702.258, 1100.943 701.569 C 1101.515 700.880, 1101.696 700.029, 1101.346 699.679 C 1100.995 699.329, 1100.789 696.143, 1100.886 692.600 C 1101.035 687.173, 1100.783 686.086, 1099.282 685.695 C 1097.683 685.280, 1097.675 685.220, 1099.208 685.116 C 1100.731 685.013, 1100.918 683.486, 1100.936 671.068 C 1100.946 663.405, 1101.018 656.768, 1101.096 656.318 C 1101.575 653.540, 1100.764 651.101, 1099.266 650.813 C 1098.313 650.629, 1103.150 650.466, 1110.016 650.450 C 1128.526 650.407, 1132.738 648.233, 1136.329 636.873 C 1137.180 634.178, 1135.104 627.002, 1132.475 623.556 C 1128.636 618.523, 1124.484 618.069, 1082 618.028 C 1046.254 617.994, 1044.348 618.085, 1041.241 619.987 M 971.500 650.120 C 967.100 650.583, 961.925 650.777, 960 650.552 C 958.075 650.328, 957.288 650.369, 958.250 650.645 C 959.212 650.921, 960.040 652.126, 960.089 653.323 C 960.137 654.520, 960.250 661.125, 960.339 668 L 960.500 680.500 972.968 680.176 C 984.691 679.872, 985.647 679.692, 988.968 677.176 C 990.911 675.704, 992.529 674.050, 992.563 673.500 C 992.598 672.950, 993.417 670.753, 994.382 668.618 C 995.627 665.865, 995.826 664.426, 995.068 663.668 C 994.481 663.081, 994 661.640, 994 660.467 C 994 657.718, 982.787 648.556, 980.136 649.140 C 979.786 649.217, 975.900 649.658, 971.500 650.120 M 1133.624 662.273 C 1131.328 663.465, 1126.946 664.486, 1122.874 664.777 L 1116 665.269 1115.888 686.384 C 1115.680 725.554, 1115.112 733.779, 1112.224 739.476 C 1109.745 744.364, 1100.389 752.820, 1096.243 753.918 C 1083.707 757.239, 1079.676 757.049, 1071.044 752.730 C 1065.064 749.737, 1060.934 745.439, 1057.770 738.914 C 1054.637 732.453, 1053.628 727.719, 1053.526 719 C 1053.484 715.425, 1053.348 701.813, 1053.225 688.750 L 1053 665 1047.500 665 L 1042 665 1041.985 669.250 C 1041.954 678.319, 1036.933 693.288, 1031.561 700.331 C 1030.152 702.178, 1029 703.971, 1029 704.315 C 1029 704.660, 1030.336 706.867, 1031.970 709.221 C 1037.893 717.756, 1037.977 734.815, 1032.127 741.095 C 1030.957 742.350, 1030 743.718, 1030 744.134 C 1030 745.753, 1018.670 754.011, 1015.184 754.932 C 1008.277 756.757, 1006.110 756.848, 1001.080 755.521 C 995.144 753.955, 989.392 750.596, 986.224 746.844 C 984.972 745.362, 981.716 741.870, 978.989 739.085 L 974.030 734.021 971.997 738.005 C 969.798 742.316, 961.737 751.133, 958.500 752.767 C 957.400 753.323, 953.681 754.495, 950.235 755.372 C 944.615 756.802, 943.378 756.813, 938.235 755.476 C 931.872 753.821, 926.403 751.461, 925.483 749.973 C 924.463 748.322, 921.771 748.886, 917.910 751.563 C 910.574 756.646, 901.082 757.704, 891.895 754.463 C 886.964 752.723, 878.481 745.831, 876.460 741.922 L 874.999 739.097 861.999 739.179 C 851.206 739.246, 849 739.512, 849 740.745 C 849 741.562, 846.308 744.784, 843.018 747.905 C 837.885 752.774, 836.146 753.780, 830.768 754.991 C 823.576 756.612, 823.075 756.632, 817 755.558 C 812.727 754.802, 803.880 750.472, 803.167 748.787 C 802.610 747.473, 800.324 747.904, 798.929 749.586 C 793.868 755.684, 775.707 757.710, 767.020 753.146 C 763.074 751.073, 761.255 749.412, 754.535 741.750 C 753.691 740.788, 753.295 740, 753.655 740 C 754.015 740, 753.603 739.212, 752.740 738.250 C 750.701 735.978, 749.811 730.958, 749.686 721.026 C 749.600 714.139, 749.341 713, 747.864 713 C 746.917 713, 745.500 713.643, 744.714 714.429 C 741.117 718.026, 727.793 718.035, 722.285 714.444 C 721.067 713.650, 719.656 713, 719.149 713 C 718.642 713, 718.023 717.612, 717.773 723.250 C 717.236 735.388, 715.455 740.099, 708.614 747.478 C 706.077 750.216, 704 752.118, 704 751.705 C 704 751.292, 702.903 751.673, 701.563 752.551 C 698.536 754.534, 689.751 756.911, 686.743 756.561 C 685.510 756.417, 683.038 755.972, 681.250 755.570 C 677.027 754.623, 677.020 754.393, 681.553 766.500 C 681.965 767.600, 682.411 769.005, 682.544 769.621 C 682.677 770.238, 683.560 771.926, 684.508 773.371 L 686.230 776 702.865 776.213 C 733.881 776.610, 741.440 776.724, 794 777.588 C 859.257 778.661, 1049.669 778.764, 1080 777.742 C 1113.204 776.624, 1126.419 775.901, 1127.174 775.161 C 1127.817 774.531, 1128.403 770.170, 1129.480 758 C 1129.748 754.975, 1130.200 750.925, 1130.486 749 C 1130.948 745.888, 1131.320 741.993, 1132.543 727.500 C 1132.728 725.300, 1133.145 719.900, 1133.470 715.500 C 1135.025 694.390, 1137.251 671.101, 1138.056 667.500 C 1139.164 662.549, 1139.232 659.960, 1138.250 660.131 C 1137.838 660.202, 1135.756 661.166, 1133.624 662.273 M 860.216 674.750 C 859.652 676.263, 858.022 680.542, 856.595 684.261 C 855.168 687.979, 854 691.178, 854 691.371 C 854 691.563, 856.545 691.983, 859.656 692.304 C 866.547 693.015, 871.433 692.229, 870.106 690.622 C 869.596 690.005, 868.864 687.813, 868.478 685.750 C 867.876 682.527, 868.039 681.986, 869.639 681.900 C 870.959 681.830, 870.773 681.603, 869 681.120 C 867.348 680.670, 865.848 679.008, 864.579 676.220 C 863.522 673.899, 862.339 672, 861.950 672 C 861.561 672, 860.781 673.237, 860.216 674.750" stroke="none" fill="#b92d2e" fill-rule="evenodd"/><path d="M -0 600.001 L -0 1200.001 900.250 1199.751 L 1800.500 1199.500 1800.751 599.750 L 1801.002 0 900.501 0 L 0 0 -0 600.001 M 0.497 600.500 C 0.497 930.500, 0.611 1065.649, 0.750 900.832 C 0.889 736.015, 0.889 466.015, 0.750 300.832 C 0.611 135.649, 0.497 270.500, 0.497 600.500 M 313.131 321.516 C 302.642 324.454, 295.050 332.857, 292.519 344.331 C 291.124 350.653, 290.970 363.260, 291.218 451 C 291.477 542.377, 291.642 550.914, 293.235 555.570 C 296.429 564.902, 303.456 571.573, 313.111 574.440 C 320.802 576.724, 445.989 576.786, 453.655 574.510 C 463.880 571.473, 471.652 563.135, 473.993 552.688 C 474.632 549.835, 475.308 546.998, 475.495 546.384 C 475.681 545.771, 478.459 547.731, 481.667 550.740 C 499.921 567.860, 521.502 576.776, 547 577.732 C 558.164 578.150, 560.671 577.912, 570.455 575.499 C 576.480 574.013, 584.679 571.203, 588.673 569.254 L 595.937 565.710 599.857 569.252 C 603.977 572.974, 612.221 576.009, 618.154 575.988 C 622.961 575.971, 631.371 573.552, 635.506 570.996 C 642.780 566.501, 649 555.125, 649 546.318 C 649 541.852, 650.313 542.141, 653.936 547.407 C 663.496 561.301, 678.959 570.675, 700.120 575.404 C 730.638 582.223, 759.947 575.396, 778.807 557.076 C 786.841 549.271, 794.016 536.003, 795.618 525.990 C 795.969 523.795, 796.536 522.016, 796.878 522.035 C 797.220 522.055, 799.601 525.542, 802.168 529.785 C 809.172 541.361, 816.832 549.989, 826.663 557.378 C 844.372 570.687, 861.928 576.858, 884.500 577.706 C 896.043 578.139, 898.845 577.894, 909.500 575.515 C 923.375 572.416, 936.285 566.740, 945.719 559.590 C 952.530 554.428, 959.328 547.184, 961.756 542.500 C 963.750 538.654, 965.973 530.324, 965.988 526.641 C 965.998 524.177, 966.809 525.014, 971.849 532.688 C 997.017 571.017, 1041.418 586.576, 1087 573.038 C 1094.455 570.824, 1108.896 562.611, 1117.459 555.715 C 1127.877 547.325, 1138.074 534.567, 1143.759 522.807 C 1145.817 518.550, 1147.725 515.085, 1148 515.106 C 1148.275 515.127, 1150.455 519.131, 1152.844 524.004 C 1164.778 548.345, 1188.305 567.372, 1215.500 574.676 C 1224.160 577.002, 1227.510 577.371, 1240.500 577.431 C 1253.098 577.489, 1257.101 577.113, 1265.500 575.083 C 1278.401 571.965, 1289.456 566.832, 1299.669 559.218 C 1312.462 549.681, 1319 539.407, 1319 528.841 C 1319 526.728, 1319.375 525, 1319.834 525 C 1320.292 525, 1322.979 528.549, 1325.805 532.888 C 1332.712 543.493, 1339.886 551.173, 1349.500 558.256 C 1367.223 571.313, 1387.199 577.998, 1408.500 577.999 C 1454.954 578.002, 1493.689 547.297, 1505.184 501.359 C 1508.593 487.734, 1508.397 468.065, 1504.712 454.154 C 1499.794 435.586, 1492.358 422.242, 1479.637 409.159 C 1464.769 393.867, 1449.143 385.558, 1425.670 380.463 C 1409.581 376.971, 1385.102 380.102, 1367.800 387.865 C 1351.675 395.100, 1334.594 409.834, 1325.618 424.250 C 1322.964 428.512, 1320.363 432, 1319.837 432 C 1319.312 432, 1319.128 431.602, 1319.428 431.116 C 1320.469 429.432, 1317.816 418.479, 1315.196 413.642 C 1311.889 407.536, 1301.373 397.765, 1292.287 392.355 C 1283.667 387.223, 1274.599 383.925, 1261.073 381.001 C 1252.220 379.088, 1248.748 378.830, 1238.073 379.292 C 1231.158 379.591, 1223.925 380.291, 1222 380.846 C 1220.075 381.402, 1215.575 382.648, 1212 383.616 C 1198.561 387.253, 1185.033 395.204, 1173.214 406.413 C 1163.942 415.206, 1157.830 423.332, 1152.654 433.750 C 1150.399 438.288, 1148.317 441.969, 1148.027 441.932 C 1147.737 441.894, 1145.798 438.387, 1143.717 434.138 C 1127.385 400.783, 1092.336 379, 1055 379 C 1040.810 379, 1023.721 382.974, 1011.671 389.077 C 995.392 397.322, 981.750 409.367, 972.042 424.066 L 966.385 432.633 965.347 426.044 C 964 417.488, 961.822 413.060, 955.622 406.277 C 943.367 392.867, 929.435 385.589, 907.140 380.948 C 882.998 375.923, 856.171 380.960, 834.223 394.640 C 819.709 403.687, 806.132 418.803, 798.005 434.965 C 793.930 443.068, 789.349 460.980, 788.419 472.446 L 787.710 481.187 782.605 475.654 C 772.542 464.749, 760.781 457.970, 740 451.098 C 714.246 442.582, 712.495 441.843, 714.543 440.345 C 717.082 438.489, 730.082 438.590, 734.656 440.501 C 736.632 441.326, 741.017 443.978, 744.401 446.392 C 753.682 453.015, 760.169 454.327, 769.677 451.503 C 778.732 448.814, 785.798 441.647, 788.476 432.434 C 790.381 425.882, 790.390 422.593, 788.520 415.417 C 785.823 405.059, 775.531 394.185, 762.686 388.121 C 749.630 381.956, 728.043 378.334, 714.404 380.018 C 696.449 382.236, 682.937 387.301, 672.523 395.719 C 660.953 405.071, 654.984 415.240, 651.806 431.009 C 649.811 440.907, 649.800 441.497, 651.445 450.359 C 656.200 475.991, 672.503 490.907, 709.580 503.550 C 722.556 507.975, 735 513.492, 735 514.821 C 735 515.344, 733.353 516.554, 731.340 517.509 C 723.177 521.382, 707.722 517.320, 701.351 509.626 C 696.834 504.171, 688.915 499.440, 681.094 497.523 C 674.375 495.876, 673.630 495.875, 666.984 497.504 C 661.389 498.875, 658.979 500.112, 655.087 503.612 C 652.403 506.025, 649.935 508, 649.603 508 C 649.271 508, 649 499.183, 649 488.407 C 649 466.405, 647.276 454.813, 641.959 441.077 C 633.645 419.599, 614.975 399.576, 593.423 389.027 C 561.658 373.479, 524.507 376.277, 494 396.515 C 486.190 401.696, 474.440 413.391, 468.261 422.133 C 453.089 443.598, 447.416 473.293, 453.421 499.810 C 454.753 505.689, 456.340 511.800, 456.949 513.389 C 457.558 514.977, 457.878 516.455, 457.661 516.673 C 457.443 516.890, 455.068 516.550, 452.383 515.917 C 446.534 514.538, 443.663 514.455, 392.750 514.200 L 353 514 353 432.182 C 353 354.889, 352.895 349.963, 351.092 343.098 C 346.662 326.223, 330.050 316.779, 313.131 321.516 M 533.252 444.510 C 503.650 459.320, 504.435 499.721, 534.603 513.975 C 540.291 516.662, 542.038 517, 550.253 516.999 C 558.424 516.999, 560.228 516.654, 565.760 514.037 C 573.832 510.218, 580.894 503.104, 584.859 494.796 C 587.670 488.905, 588 487.256, 588 479.085 C 588 471.151, 587.621 469.120, 585.103 463.568 C 581.173 454.899, 575.276 448.777, 566.748 444.510 C 560.167 441.218, 559.128 441, 550 441 C 540.872 441, 539.833 441.218, 533.252 444.510 M 871 443.967 C 864.092 447.572, 855.978 455.837, 852.314 463 C 849.783 467.947, 849.500 469.506, 849.500 478.500 C 849.500 487.583, 849.770 489.033, 852.441 494.308 C 856.289 501.909, 863.659 509.284, 871.332 513.211 C 876.908 516.065, 878.364 516.368, 886.500 516.364 C 897.330 516.358, 901.199 514.877, 913.260 506.122 C 923.793 498.476, 932.019 496.037, 940.829 497.946 C 946.666 499.211, 952.433 502.325, 957.250 506.812 C 960.565 509.900, 960.609 509.380, 958 498 C 956.702 492.337, 956.051 485.829, 956.051 478.500 C 956.051 471.171, 956.702 464.663, 958 459 C 960.668 447.361, 960.634 447.241, 955.750 451.232 C 950.111 455.840, 946.609 457.545, 940 458.898 C 932.057 460.526, 923.391 457.952, 914.335 451.278 C 902.174 442.314, 898.615 440.993, 886.783 441.048 C 877.455 441.092, 875.989 441.363, 871 443.967 M 1038.252 444.510 C 1017.965 454.659, 1010.610 478.013, 1021.532 497.604 C 1025.658 505.007, 1030.729 509.755, 1038.587 513.576 C 1043.563 515.995, 1046.017 516.508, 1054.077 516.814 C 1063.003 517.152, 1064.109 516.971, 1070.334 514.148 C 1078.427 510.478, 1085.674 503.402, 1089.668 495.268 C 1092.055 490.406, 1092.553 487.996, 1092.838 479.923 C 1093.152 471.050, 1092.957 469.861, 1090.192 463.763 C 1086.176 454.905, 1080.330 448.804, 1071.748 444.510 C 1065.167 441.218, 1064.128 441, 1055 441 C 1045.872 441, 1044.833 441.218, 1038.252 444.510 M 1224 444.503 C 1195.596 459.610, 1195.994 498.802, 1224.695 513.049 C 1230.983 516.171, 1232.183 516.420, 1240.500 516.327 C 1251.418 516.205, 1255.579 514.604, 1267.522 505.926 C 1278.025 498.296, 1285.174 496.211, 1294.500 498.058 C 1300.643 499.276, 1306.376 502.271, 1311.250 506.812 C 1312.763 508.221, 1314 509.156, 1314 508.890 C 1314 508.624, 1313.042 504.152, 1311.871 498.953 C 1308.991 486.168, 1308.992 470.778, 1311.873 458.261 C 1313.043 453.179, 1314 448.792, 1314 448.513 C 1314 448.233, 1311.243 450.034, 1307.872 452.515 C 1304.502 454.996, 1300.565 457.290, 1299.122 457.613 C 1297.680 457.936, 1294.857 458.611, 1292.850 459.112 C 1290.324 459.743, 1287.376 459.598, 1283.277 458.642 C 1276.148 456.979, 1274.262 456.036, 1266.515 450.258 C 1255.624 442.137, 1252.447 440.997, 1240.783 441.023 C 1230.996 441.044, 1230.187 441.212, 1224 444.503 M 1395.500 442.722 C 1385.893 446.610, 1377.472 454.587, 1373.167 463.880 C 1370.915 468.739, 1370.572 470.787, 1370.629 479 C 1370.687 487.267, 1371.058 489.252, 1373.487 494.297 C 1377.612 502.862, 1383.912 509.317, 1392.190 513.459 C 1398.784 516.758, 1399.910 517, 1408.632 517 C 1416.996 517, 1418.685 516.674, 1424.464 513.944 C 1432.646 510.077, 1438.962 503.961, 1443.146 495.851 C 1446.225 489.883, 1446.424 488.867, 1446.461 479 C 1446.496 469.514, 1446.233 467.957, 1443.737 462.876 C 1439.550 454.353, 1433.931 448.604, 1425.823 444.548 C 1419.138 441.203, 1418.180 441.003, 1409.116 441.052 C 1402.675 441.086, 1398.179 441.637, 1395.500 442.722 M 1152.664 586.250 C 1148.676 589.848, 1147.650 591.574, 1145.976 597.497 C 1144.889 601.345, 1143.993 605.845, 1143.985 607.497 C 1143.959 612.495, 1142.614 613.654, 1139.856 611.053 C 1136.727 608.102, 1133.649 606.581, 1126.846 604.625 C 1122.087 603.257, 1115.437 603.002, 1084.846 603.012 C 1046.580 603.024, 1043.073 603.357, 1034.387 607.798 C 1032.126 608.954, 1028.249 612.154, 1025.772 614.908 L 1021.270 619.916 1019.020 617.522 C 1015.656 613.940, 1004.532 608.446, 995.500 605.906 C 988.593 603.963, 984.478 603.600, 965.382 603.246 C 944.922 602.868, 942.719 602.999, 935.997 605.001 C 929.700 606.876, 927.893 607.988, 922.456 613.333 C 918.369 617.351, 915.743 620.894, 914.920 623.500 C 914.147 625.952, 913.432 636.402, 913.074 650.500 C 912.606 668.885, 912.260 672.998, 911.346 671 C 910.718 669.625, 908.157 663.550, 905.656 657.500 C 903.155 651.450, 900.037 644.250, 898.727 641.500 C 897.417 638.750, 894.805 632.675, 892.922 628 C 890.195 621.227, 888.281 618.249, 883.500 613.342 C 878.157 607.857, 876.680 606.942, 870.005 604.976 C 863.606 603.092, 861.823 602.928, 857.807 603.855 C 845.225 606.760, 836.434 614.543, 831.568 627.088 C 829.987 631.165, 827.606 636.750, 826.276 639.500 C 824.947 642.250, 822.077 648.933, 819.897 654.352 C 817.718 659.770, 814.846 666.295, 813.514 668.852 L 811.093 673.500 811.047 651.409 C 810.994 626.286, 810.331 622.682, 804.451 615.505 C 799.891 609.941, 794.595 606.707, 786.278 604.408 C 780.371 602.775, 779.727 602.777, 773.523 604.456 C 764.664 606.854, 761.227 609.596, 746.914 625.679 C 740.148 633.280, 734.275 639.500, 733.862 639.500 C 733.449 639.500, 727.569 633.215, 720.795 625.533 C 714.021 617.851, 706.953 610.537, 705.087 609.280 C 703.222 608.023, 698.544 606.056, 694.693 604.909 C 687.910 602.889, 687.499 602.877, 681.595 604.527 C 672.977 606.935, 669.015 609.176, 664.272 614.321 C 657.193 622.001, 656.715 624.803, 656.067 662.396 C 655.565 691.547, 655.348 694.849, 654.167 691.396 C 651.032 682.235, 647.724 673.362, 646.769 671.557 C 646.204 670.489, 643.586 663.514, 640.950 656.057 C 631.490 629.293, 627.948 620.533, 623.771 613.571 C 618.632 605.005, 611.998 597.669, 606.450 594.418 C 597.927 589.423, 595.197 589.112, 545 587.421 C 490.033 585.569, 485.848 585.697, 482.192 589.353 C 479.703 591.843, 479.606 592.431, 478.849 609.708 C 477.958 630.049, 478.262 632.958, 481.607 636.101 C 483.844 638.202, 485.266 638.425, 500.729 639.097 C 509.917 639.496, 530.161 640.150, 545.714 640.549 C 564.302 641.026, 574.531 641.668, 575.562 642.421 C 577.078 643.531, 586.036 667.552, 592.184 687 C 593.836 692.225, 595.792 697.850, 596.531 699.500 C 598.629 704.184, 607 727.838, 607 729.083 C 607 729.696, 607.675 731.728, 608.500 733.599 C 609.325 735.469, 610.675 738.531, 611.500 740.401 C 612.325 742.272, 613 744.334, 613 744.983 C 613 746.435, 617.013 758.446, 621.526 770.500 C 625.415 780.890, 628.256 789.499, 630.929 799 C 631.626 801.475, 632.571 803.959, 633.029 804.520 C 633.487 805.080, 634.848 808.680, 636.052 812.520 C 637.256 816.359, 639.112 821.975, 640.176 825 C 641.240 828.025, 642.330 831.573, 642.599 832.885 C 642.868 834.196, 643.813 836.671, 644.699 838.384 C 646.278 841.439, 650.747 854.558, 651.551 858.500 C 651.775 859.600, 652.351 861.400, 652.832 862.500 C 654.838 867.092, 670.997 913.801, 675.665 928.500 C 677.586 934.550, 679.855 941.075, 680.707 943 C 681.560 944.925, 684.476 953.250, 687.189 961.500 C 692.207 976.764, 695.255 982.627, 699.677 985.524 C 703.173 987.815, 704.915 988.098, 719.331 988.719 C 731.826 989.257, 732.145 989.327, 731.496 991.386 C 731.129 992.549, 730.588 997.177, 730.293 1001.671 C 729.695 1010.792, 732.100 1021.050, 736.436 1027.876 C 739.660 1032.952, 748.916 1042.328, 752.500 1044.149 C 754.150 1044.987, 757.300 1046.720, 759.500 1047.999 C 762.957 1050.009, 765.062 1050.360, 775 1050.587 C 786.137 1050.840, 786.705 1050.748, 793 1047.674 C 796.575 1045.928, 799.725 1044.272, 800 1043.994 C 800.275 1043.715, 802.525 1041.961, 805 1040.095 C 810.480 1035.963, 816.424 1028.586, 818.934 1022.799 C 821.961 1015.819, 823.272 1005.412, 822.063 997.958 C 821.487 994.406, 821.012 990.938, 821.008 990.250 C 821.002 989.257, 846.963 989, 947.500 989 C 1019.376 989, 1074 989.379, 1074 989.877 C 1074 990.360, 1073.278 993.953, 1072.395 997.863 C 1069.360 1011.300, 1073.322 1023.909, 1084.113 1035.159 C 1091.583 1042.947, 1096.404 1045.600, 1106.652 1047.560 C 1113.231 1048.819, 1115.017 1048.807, 1121.534 1047.461 C 1131.319 1045.440, 1136.263 1042.749, 1143.500 1035.506 C 1149.633 1029.367, 1154.101 1021.634, 1155.638 1014.500 C 1156.502 1010.489, 1155.882 998.264, 1154.514 992.334 L 1153.784 989.169 1171.142 988.828 C 1190.745 988.443, 1194.340 987.378, 1198.840 980.626 C 1201.061 977.292, 1201.177 976.285, 1201.132 960.650 C 1201.068 938.293, 1199.648 933.419, 1191.941 929.087 L 1187.675 926.689 964.587 927.095 L 741.500 927.500 738.730 919.500 C 737.207 915.100, 735.787 910.825, 735.574 910 C 735.362 909.175, 734.858 907.207, 734.454 905.626 L 733.721 902.752 832.610 903.373 C 887 903.715, 983.925 904.242, 1048 904.543 C 1161.964 905.078, 1164.661 905.047, 1171.904 903.105 C 1183.739 899.932, 1192.600 892.911, 1198.378 882.129 C 1201.335 876.612, 1205.222 865.169, 1204.524 864.039 C 1204.309 863.690, 1204.526 858.476, 1205.007 852.453 C 1205.488 846.429, 1206.132 837.450, 1206.438 832.500 C 1206.745 827.550, 1207.433 818.325, 1207.968 812 C 1208.503 805.675, 1209.427 793.525, 1210.020 785 C 1210.614 776.475, 1211.280 767.250, 1211.500 764.500 C 1211.721 761.750, 1212.156 755.450, 1212.469 750.500 C 1212.781 745.550, 1213.261 739.250, 1213.535 736.500 C 1213.809 733.750, 1214.242 728.125, 1214.498 724 C 1214.753 719.875, 1215.431 713.125, 1216.005 709 C 1216.578 704.875, 1218.537 679.225, 1220.358 652 C 1224.089 596.207, 1224.032 594.748, 1217.861 588.327 C 1211.802 582.022, 1211.681 582, 1183.237 582 L 1157.375 582 1152.664 586.250 M 679.378 620.490 C 671.093 625.456, 671.536 622.328, 671.346 677.250 C 671.254 704.063, 671.546 726, 671.996 726 C 672.445 726, 672.578 726.898, 672.291 727.996 C 672.004 729.094, 672.538 731.613, 673.477 733.594 C 675.803 738.494, 681.582 741.036, 689.375 740.586 C 694.332 740.300, 695.629 739.783, 698.591 736.912 C 700.487 735.074, 702.482 731.923, 703.025 729.909 C 703.567 727.895, 703.988 715.336, 703.962 702.001 C 703.935 688.665, 704.143 677.524, 704.423 677.243 C 704.704 676.962, 706.411 678.452, 708.217 680.554 C 710.023 682.655, 713.084 685.978, 715.020 687.937 C 716.956 689.897, 719.842 693.213, 721.433 695.308 C 723.163 697.585, 725.466 699.343, 727.163 699.683 C 728.723 699.995, 730 700.644, 730 701.125 C 730 701.606, 731.618 702, 733.596 702 C 737.564 702, 741.272 699.813, 747.710 693.676 C 751.545 690.019, 751.768 689.546, 750.210 688.363 C 748.678 687.199, 748.793 687.060, 751.314 687.032 C 753.399 687.008, 755.398 685.639, 759.026 681.750 C 763.247 677.226, 763.929 676.811, 763.962 678.750 C 763.984 680.066, 764.622 681, 765.500 681 C 766.325 681, 767 681.450, 767 682 C 767 682.550, 766.316 683, 765.480 683 C 764.162 683, 763.975 685.875, 764.078 704.500 C 764.185 723.759, 764.369 726.003, 765.848 726.032 C 767.322 726.060, 767.308 726.209, 765.718 727.415 C 764.174 728.586, 764.103 729.149, 765.182 731.633 C 766.964 735.735, 771.783 739.864, 776.166 741.045 C 781.112 742.376, 789.221 739.860, 792.013 736.127 C 793.094 734.682, 794.394 732.998, 794.903 732.384 C 796.397 730.582, 796.594 722.985, 795.169 722.105 C 794.155 721.478, 794.162 721.111, 795.203 720.247 C 796.932 718.811, 796.887 634.671, 795.153 628.435 C 792.557 619.100, 782.284 615.264, 772.817 620.093 C 770.560 621.245, 767.541 623.590, 766.107 625.305 C 764.673 627.020, 759.675 632.745, 755 638.028 C 750.325 643.310, 743.851 650.640, 740.612 654.316 C 737.374 657.992, 734.285 661, 733.747 661 C 733.210 661, 731.584 659.611, 730.135 657.913 C 728.686 656.216, 725.025 652.037, 722 648.627 C 707.607 632.403, 704.019 628.294, 701.966 625.684 C 695.947 618.032, 686.935 615.960, 679.378 620.490 M 852.180 621.578 C 849.881 623.546, 848 625.551, 848 626.033 C 848 626.515, 846.679 629.743, 845.064 633.205 C 843.450 636.667, 840.058 644.450, 837.527 650.500 C 834.997 656.550, 832.315 662.850, 831.569 664.500 C 829.250 669.625, 826.444 676.113, 822.053 686.500 C 819.727 692, 816.113 700.325, 814.021 705 C 809.318 715.510, 808.951 716.451, 807.455 721.868 C 806.095 726.794, 806.556 730.108, 808.497 729.363 C 809.213 729.088, 810.095 729.344, 810.458 729.932 C 810.847 730.561, 810.248 731, 809.002 731 C 806.915 731, 806.911 731.041, 808.693 734.108 C 811.541 739.006, 824.607 744.064, 826.500 741 C 826.840 740.450, 827.925 740, 828.911 740 C 832.749 740, 839.447 731.124, 835.750 730.937 C 835.063 730.902, 835.555 730.451, 836.844 729.934 C 838.134 729.417, 839.410 728.148, 839.680 727.114 C 840.348 724.561, 843.197 724.275, 864.694 724.607 C 884.650 724.916, 885.849 725.277, 887.396 731.440 C 888.344 735.219, 892.705 739, 896.115 739 C 898.213 739, 898.789 739.385, 898.362 740.500 C 896.980 744.102, 909.649 740.750, 913.622 736.463 C 919.937 729.649, 919.594 725.708, 911.014 706.500 C 910.032 704.300, 908.238 700.250, 907.028 697.500 C 905.818 694.750, 904.028 690.700, 903.049 688.500 C 899.031 679.466, 886.196 649.682, 884.949 646.500 C 883.997 644.072, 879.891 634.908, 876.531 627.715 C 874.524 623.415, 873.212 622.016, 869.505 620.215 C 862.506 616.814, 857.263 617.227, 852.180 621.578 M 934.900 621.160 C 929.651 624.930, 928.845 625.959, 929.381 628.202 C 929.605 629.138, 929.401 630.038, 928.927 630.202 C 928.151 630.471, 927.858 647.436, 927.963 686.184 L 928 699.867 930.750 700.284 L 933.500 700.700 930.750 700.850 L 928 701 928 715.386 C 928 732.041, 928.463 733.446, 935.622 738.536 C 941.363 742.618, 945.034 742.929, 951.336 739.867 C 957.648 736.801, 959.401 733.288, 960 722.500 L 960.500 713.500 968.134 713.210 L 975.769 712.920 979.115 717.145 C 980.956 719.469, 983.370 722.329, 984.481 723.500 C 985.591 724.671, 989.143 728.622, 992.374 732.279 C 999.571 740.427, 1004.455 742.730, 1010.218 740.694 C 1015.056 738.984, 1021.124 733.487, 1020.363 731.503 C 1020.046 730.676, 1020.284 730, 1020.893 730 C 1021.547 730, 1021.998 728.058, 1021.996 725.250 C 1021.992 719.953, 1020.648 717.318, 1013.707 709.002 L 1009.118 703.503 1011.233 701.252 C 1012.778 699.607, 1012.964 698.988, 1011.924 698.955 C 1011.141 698.930, 1011.710 698.368, 1013.189 697.705 C 1020.865 694.266, 1028.704 674.649, 1027.492 661.913 C 1026.178 648.116, 1018.993 634.151, 1013.070 633.884 C 1011.279 633.803, 1011.048 633.626, 1012.305 633.300 C 1015.192 632.552, 1013.821 630.879, 1006.680 626.436 C 994.561 618.896, 989.910 618, 962.872 618 L 939.300 618 934.900 621.160 M 1041.241 619.987 C 1038.004 621.968, 1034.011 627.355, 1034.004 629.750 C 1034.002 630.438, 1034.787 631.029, 1035.750 631.063 C 1037.091 631.112, 1036.974 631.338, 1035.250 632.031 C 1034.013 632.529, 1033 633.596, 1033 634.403 C 1033 636.239, 1034.886 641.284, 1035.833 641.980 C 1036.222 642.266, 1037.064 643.692, 1037.703 645.148 C 1038.713 647.451, 1039.755 647.936, 1045.682 648.867 C 1049.432 649.456, 1055.987 650.230, 1060.250 650.586 C 1064.513 650.943, 1068.031 651.520, 1068.070 651.867 C 1068.108 652.215, 1068.234 669.825, 1068.349 691 C 1068.464 712.175, 1068.909 730.063, 1069.338 730.750 C 1069.767 731.438, 1070.879 732.007, 1071.809 732.015 C 1073.231 732.028, 1073.268 732.177, 1072.040 732.954 C 1069.206 734.747, 1075.845 739.777, 1083.204 741.414 C 1086.864 742.228, 1096.060 738.083, 1098.351 734.588 C 1100.599 731.156, 1101.925 718, 1100.023 718 C 1099.037 718, 1099.019 717.682, 1099.942 716.570 C 1101.318 714.912, 1101.963 704.095, 1100.732 703.334 C 1100.276 703.052, 1100.371 702.258, 1100.943 701.569 C 1101.515 700.880, 1101.696 700.029, 1101.346 699.679 C 1100.995 699.329, 1100.789 696.143, 1100.886 692.600 C 1101.035 687.173, 1100.783 686.086, 1099.282 685.695 C 1097.683 685.280, 1097.675 685.220, 1099.208 685.116 C 1100.731 685.013, 1100.918 683.486, 1100.936 671.068 C 1100.946 663.405, 1101.018 656.768, 1101.096 656.318 C 1101.575 653.540, 1100.764 651.101, 1099.266 650.813 C 1098.313 650.629, 1103.150 650.466, 1110.016 650.450 C 1128.526 650.407, 1132.738 648.233, 1136.329 636.873 C 1137.180 634.178, 1135.104 627.002, 1132.475 623.556 C 1128.636 618.523, 1124.484 618.069, 1082 618.028 C 1046.254 617.994, 1044.348 618.085, 1041.241 619.987 M 971.500 650.120 C 967.100 650.583, 961.925 650.777, 960 650.552 C 958.075 650.328, 957.288 650.369, 958.250 650.645 C 959.212 650.921, 960.040 652.126, 960.089 653.323 C 960.137 654.520, 960.250 661.125, 960.339 668 L 960.500 680.500 972.968 680.176 C 984.691 679.872, 985.647 679.692, 988.968 677.176 C 990.911 675.704, 992.529 674.050, 992.563 673.500 C 992.598 672.950, 993.417 670.753, 994.382 668.618 C 995.627 665.865, 995.826 664.426, 995.068 663.668 C 994.481 663.081, 994 661.640, 994 660.467 C 994 657.718, 982.787 648.556, 980.136 649.140 C 979.786 649.217, 975.900 649.658, 971.500 650.120 M 1133.624 662.273 C 1131.328 663.465, 1126.946 664.486, 1122.874 664.777 L 1116 665.269 1115.888 686.384 C 1115.680 725.554, 1115.112 733.779, 1112.224 739.476 C 1109.745 744.364, 1100.389 752.820, 1096.243 753.918 C 1083.707 757.239, 1079.676 757.049, 1071.044 752.730 C 1065.064 749.737, 1060.934 745.439, 1057.770 738.914 C 1054.637 732.453, 1053.628 727.719, 1053.526 719 C 1053.484 715.425, 1053.348 701.813, 1053.225 688.750 L 1053 665 1047.500 665 L 1042 665 1041.985 669.250 C 1041.954 678.319, 1036.933 693.288, 1031.561 700.331 C 1030.152 702.178, 1029 703.971, 1029 704.315 C 1029 704.660, 1030.336 706.867, 1031.970 709.221 C 1037.893 717.756, 1037.977 734.815, 1032.127 741.095 C 1030.957 742.350, 1030 743.718, 1030 744.134 C 1030 745.753, 1018.670 754.011, 1015.184 754.932 C 1008.277 756.757, 1006.110 756.848, 1001.080 755.521 C 995.144 753.955, 989.392 750.596, 986.224 746.844 C 984.972 745.362, 981.716 741.870, 978.989 739.085 L 974.030 734.021 971.997 738.005 C 969.798 742.316, 961.737 751.133, 958.500 752.767 C 957.400 753.323, 953.681 754.495, 950.235 755.372 C 944.615 756.802, 943.378 756.813, 938.235 755.476 C 931.872 753.821, 926.403 751.461, 925.483 749.973 C 924.463 748.322, 921.771 748.886, 917.910 751.563 C 910.574 756.646, 901.082 757.704, 891.895 754.463 C 886.964 752.723, 878.481 745.831, 876.460 741.922 L 874.999 739.097 861.999 739.179 C 851.206 739.246, 849 739.512, 849 740.745 C 849 741.562, 846.308 744.784, 843.018 747.905 C 837.885 752.774, 836.146 753.780, 830.768 754.991 C 823.576 756.612, 823.075 756.632, 817 755.558 C 812.727 754.802, 803.880 750.472, 803.167 748.787 C 802.610 747.473, 800.324 747.904, 798.929 749.586 C 793.868 755.684, 775.707 757.710, 767.020 753.146 C 763.074 751.073, 761.255 749.412, 754.535 741.750 C 753.691 740.788, 753.295 740, 753.655 740 C 754.015 740, 753.603 739.212, 752.740 738.250 C 750.701 735.978, 749.811 730.958, 749.686 721.026 C 749.600 714.139, 749.341 713, 747.864 713 C 746.917 713, 745.500 713.643, 744.714 714.429 C 741.117 718.026, 727.793 718.035, 722.285 714.444 C 721.067 713.650, 719.656 713, 719.149 713 C 718.642 713, 718.023 717.612, 717.773 723.250 C 717.236 735.388, 715.455 740.099, 708.614 747.478 C 706.077 750.216, 704 752.118, 704 751.705 C 704 751.292, 702.903 751.673, 701.563 752.551 C 698.536 754.534, 689.751 756.911, 686.743 756.561 C 685.510 756.417, 683.038 755.972, 681.250 755.570 C 677.027 754.623, 677.020 754.393, 681.553 766.500 C 681.965 767.600, 682.411 769.005, 682.544 769.621 C 682.677 770.238, 683.560 771.926, 684.508 773.371 L 686.230 776 702.865 776.213 C 733.881 776.610, 741.440 776.724, 794 777.588 C 859.257 778.661, 1049.669 778.764, 1080 777.742 C 1113.204 776.624, 1126.419 775.901, 1127.174 775.161 C 1127.817 774.531, 1128.403 770.170, 1129.480 758 C 1129.748 754.975, 1130.200 750.925, 1130.486 749 C 1130.948 745.888, 1131.320 741.993, 1132.543 727.500 C 1132.728 725.300, 1133.145 719.900, 1133.470 715.500 C 1135.025 694.390, 1137.251 671.101, 1138.056 667.500 C 1139.164 662.549, 1139.232 659.960, 1138.250 660.131 C 1137.838 660.202, 1135.756 661.166, 1133.624 662.273 M 860.216 674.750 C 859.652 676.263, 858.022 680.542, 856.595 684.261 C 855.168 687.979, 854 691.178, 854 691.371 C 854 691.563, 856.545 691.983, 859.656 692.304 C 866.547 693.015, 871.433 692.229, 870.106 690.622 C 869.596 690.005, 868.864 687.813, 868.478 685.750 C 867.876 682.527, 868.039 681.986, 869.639 681.900 C 870.959 681.830, 870.773 681.603, 869 681.120 C 867.348 680.670, 865.848 679.008, 864.579 676.220 C 863.522 673.899, 862.339 672, 861.950 672 C 861.561 672, 860.781 673.237, 860.216 674.750" stroke="none" fill="#f9f9f9" fill-rule="evenodd"/></svg>