<svg xmlns="http://www.w3.org/2000/svg" width="1219" height="487" viewBox="0 0 1219 487" version="1.1"><path d="M 883.742 7.288 C 879.686 10.879, 878.690 12.532, 876.992 18.497 C 875.896 22.345, 874.993 26.845, 874.985 28.497 C 874.976 30.149, 874.548 32.167, 874.032 32.982 C 873.241 34.233, 872.658 34.068, 870.297 31.921 C 868.759 30.522, 866.150 28.794, 864.500 28.080 C 855.585 24.225, 853.177 24.022, 816.299 24.011 C 778.344 23.999, 772.289 24.566, 766.097 28.707 C 764.669 29.663, 763.197 30.356, 762.827 30.248 C 762.457 30.140, 759.925 32.490, 757.200 35.471 L 752.247 40.891 749.949 38.446 C 748.685 37.101, 747.248 36, 746.754 36 C 746.261 36, 745.215 35.358, 744.431 34.573 C 742.305 32.448, 728.323 27.303, 719.896 25.545 C 714.690 24.458, 706.701 24.001, 692.915 24.001 C 675.835 24, 672.510 24.265, 666.915 26.071 C 663.387 27.211, 659.938 28.872, 659.250 29.762 C 658.562 30.653, 658 30.976, 658 30.479 C 658 29.982, 655.765 31.777, 653.033 34.468 C 645.340 42.045, 644.711 44.639, 644.059 71.500 C 643.421 97.761, 643.927 97.564, 635.042 75 C 633.851 71.975, 632.023 67.869, 630.981 65.875 C 629.938 63.881, 627.206 57.581, 624.911 51.875 C 620.271 40.338, 615.172 33.357, 608.552 29.478 C 595.058 21.569, 582.654 23.292, 571.346 34.644 C 567.961 38.042, 564.895 41.874, 564.533 43.161 C 564.171 44.447, 563.453 46.513, 562.937 47.750 C 562.422 48.987, 561.582 51.013, 561.070 52.250 C 560.559 53.487, 558.798 57.425, 557.157 61 C 555.517 64.575, 552.163 72.523, 549.706 78.662 C 541.992 97.929, 542 97.936, 542 72.337 C 542 45.726, 541.342 42.788, 533.618 34.897 C 528.155 29.316, 523.297 26.677, 515.409 25.008 C 511.336 24.146, 509.334 24.305, 503.649 25.943 C 499.881 27.028, 495.292 29.066, 493.450 30.470 C 490.391 32.804, 481.541 42.344, 470 55.750 C 467.525 58.625, 465.235 60.982, 464.911 60.989 C 464.588 60.995, 460.345 56.387, 455.483 50.750 C 437.875 30.335, 435.914 28.743, 424.405 25.527 C 418.501 23.877, 418.089 23.889, 411.310 25.908 C 399.894 29.307, 392.470 35.967, 389.241 45.705 C 387.974 49.528, 387.535 57.187, 387.076 83.500 L 386.500 116.500 382.660 105.500 C 380.549 99.450, 378.247 93.375, 377.546 92 C 376.844 90.625, 374.805 85.225, 373.014 80 C 371.223 74.775, 368.978 68.700, 368.025 66.500 C 367.072 64.300, 365.505 60.250, 364.541 57.500 C 356.628 34.909, 347.861 21.493, 336.992 15.339 C 328.055 10.279, 326.416 10.099, 273.816 8.395 C 246.394 7.506, 222.004 7.072, 219.615 7.430 C 216.892 7.839, 214.403 9.007, 212.942 10.562 C 210.745 12.901, 210.569 14.081, 209.867 31.271 C 209.457 41.297, 209.387 50.625, 209.712 52 C 210.037 53.375, 211.382 55.597, 212.702 56.937 C 214.987 59.258, 215.898 59.409, 231.801 60.102 C 240.985 60.502, 261.469 61.157, 277.321 61.557 C 299.142 62.108, 306.464 62.607, 307.468 63.611 C 308.197 64.340, 310.213 69.338, 311.947 74.718 C 313.682 80.098, 315.528 85.400, 316.049 86.500 C 316.571 87.600, 319.240 95.250, 321.980 103.500 C 324.720 111.750, 327.620 120.300, 328.425 122.500 C 334.289 138.538, 342.904 162.892, 347.172 175.500 C 349.964 183.750, 354.018 195.675, 356.179 202 C 358.341 208.325, 360.274 214.235, 360.475 215.134 C 360.676 216.033, 362.162 220.083, 363.777 224.134 C 366.364 230.624, 373.373 252.093, 373.117 252.745 C 373.064 252.880, 374.080 255.385, 375.374 258.312 C 376.669 261.238, 379.416 269.003, 381.479 275.566 C 383.542 282.130, 386.714 291.325, 388.527 296 C 390.341 300.675, 393.661 310.125, 395.905 317 C 398.148 323.875, 402.939 338.050, 406.551 348.500 C 410.162 358.950, 415.491 374.505, 418.393 383.066 C 421.294 391.627, 424.728 400.066, 426.024 401.819 C 430.221 407.495, 435.625 409.277, 450.247 409.805 C 462.828 410.259, 463.146 410.326, 462.537 412.386 C 462.194 413.549, 461.651 417.875, 461.332 422 C 460.675 430.500, 462.395 438.923, 466.384 446.735 C 470.088 453.989, 479.385 462.909, 488 467.475 C 495.492 471.446, 495.513 471.451, 507 471.442 C 518.421 471.433, 518.551 471.406, 526 467.522 C 535.995 462.309, 547.004 451.278, 549.878 443.596 C 553.190 434.746, 554.271 426.404, 553.068 418.991 C 552.489 415.421, 552.012 411.938, 552.008 411.250 C 552.002 410.257, 577.963 410, 678.500 410 C 750.376 410, 805 410.379, 805 410.877 C 805 411.360, 804.278 414.953, 803.395 418.863 C 800.375 432.233, 804.429 445.133, 815.090 456.083 C 822.398 463.589, 829.149 467.195, 839 468.855 C 856.003 471.720, 873.937 461.994, 882.984 445 C 886.291 438.789, 886.446 438.033, 886.472 428 C 886.488 422.225, 886.120 415.850, 885.654 413.834 L 884.809 410.168 902.154 409.834 C 918.237 409.524, 919.801 409.328, 923.632 407.132 C 925.994 405.779, 928.719 403.065, 929.993 400.799 C 932.062 397.117, 932.211 395.678, 932.080 380.667 C 932.002 371.775, 931.483 362.807, 930.927 360.737 C 929.582 355.730, 924.761 350.406, 920.214 348.906 C 917.349 347.960, 867.082 347.780, 694.534 348.095 L 472.540 348.500 469.288 339.500 C 467.500 334.550, 465.745 328.995, 465.389 327.156 L 464.742 323.812 575.121 324.442 C 635.829 324.788, 733.425 325.168, 792 325.286 L 898.500 325.500 905.676 323.149 C 915.034 320.082, 922.972 313.681, 928.184 305 C 933.495 296.154, 934.731 291.076, 935.970 273 C 936.554 264.475, 937.686 249.400, 938.485 239.500 C 939.284 229.600, 941.109 204.850, 942.540 184.500 C 943.971 164.150, 945.549 143.900, 946.045 139.500 C 947.020 130.860, 949.912 91.993, 952.445 53.500 C 953.313 40.300, 954.227 28.292, 954.474 26.815 C 955.251 22.179, 952.191 12.807, 948.700 9.131 C 943.109 3.244, 941.688 2.996, 913.782 3.038 L 888.500 3.077 883.742 7.288 M 412.500 35.661 C 409.222 36.535, 408.396 37.989, 411.587 37.270 C 415.668 36.349, 420.889 36.396, 425 37.388 C 426.925 37.853, 428.149 37.868, 427.721 37.421 C 426.289 35.928, 415.976 34.735, 412.500 35.661 M 504.250 36.031 C 501.073 37.308, 501.447 38.371, 504.750 37.450 C 506.262 37.028, 509.525 36.364, 512 35.975 L 516.500 35.267 511.500 35.197 C 508.750 35.158, 505.488 35.534, 504.250 36.031 M 594 36.346 C 597.575 37.045, 600.688 37.478, 600.917 37.308 C 601.988 36.516, 599.816 35.967, 593.919 35.540 L 587.500 35.076 594 36.346 M 675.841 36.569 C 678.779 37.359, 681.704 37.682, 682.341 37.286 C 684.400 36.009, 707 35.740, 707 36.994 C 707 37.612, 707.419 37.859, 707.931 37.543 C 708.443 37.226, 709.152 37.438, 709.508 38.012 C 709.948 38.725, 703.853 39.068, 690.327 39.090 C 667.152 39.127, 665.994 39.181, 666.624 40.201 C 666.886 40.625, 665.471 42.404, 663.478 44.154 C 661.114 46.229, 660.017 47.956, 660.321 49.120 C 660.578 50.101, 660.369 51.044, 659.857 51.214 C 659.299 51.400, 658.929 71.364, 658.934 101.051 C 658.943 157.100, 658.608 154.615, 666.869 159.916 C 672.557 163.566, 676.483 163.814, 682.221 160.887 C 689.430 157.209, 691.135 153.836, 691.513 142.500 C 691.623 139.200, 691.778 135.938, 691.857 135.250 C 691.957 134.375, 694.226 134, 699.416 134 L 706.832 134 710.147 138.185 C 711.970 140.487, 714.370 143.329, 715.481 144.500 C 716.591 145.671, 720.143 149.622, 723.374 153.279 C 730.571 161.427, 735.455 163.730, 741.218 161.694 C 745.910 160.036, 752.328 154.298, 751.604 152.410 C 751.306 151.634, 751.499 151, 752.031 151 C 752.564 151, 752.998 148.863, 752.996 146.250 C 752.992 140.924, 751.174 137.365, 744.411 129.448 L 740.095 124.396 745.446 118.693 C 748.388 115.556, 751.915 110.848, 753.284 108.231 C 756.421 102.232, 759.122 88.990, 758.495 82.682 C 757.178 69.427, 749.939 55.024, 744.576 54.985 C 742.917 54.972, 742.793 54.784, 743.960 54.046 C 745.210 53.255, 745.152 52.825, 743.555 51.061 C 742.529 49.927, 741.340 49, 740.911 49 C 740.483 49, 737.965 47.659, 735.316 46.020 C 729.170 42.218, 719.847 39.023, 714.593 38.918 L 710.500 38.837 713.750 37.416 C 715.538 36.634, 717 35.771, 717 35.497 C 717 35.224, 706.538 35.030, 693.750 35.066 C 671.662 35.128, 670.767 35.203, 675.841 36.569 M 781.500 37 C 781.074 38.344, 779.985 39.001, 778.183 39.004 C 774.393 39.009, 769.497 42.275, 766.628 46.712 C 764.538 49.943, 764.390 50.666, 765.618 51.632 C 766.865 52.611, 766.853 52.842, 765.529 53.350 C 763.176 54.253, 763.698 57.729, 767.073 63.628 C 768.764 66.583, 770.226 69.003, 770.323 69.006 C 770.421 69.009, 773.200 69.477, 776.500 70.046 C 779.800 70.615, 786.093 71.318, 790.485 71.608 C 794.876 71.898, 798.651 72.318, 798.873 72.539 C 799.095 72.761, 799.344 90.168, 799.427 111.221 C 799.565 146.264, 799.736 149.853, 801.448 153.675 C 803.320 157.854, 807.881 161.024, 813.968 162.378 C 817.947 163.263, 825.926 159.923, 828.807 156.167 C 831.158 153.102, 831.389 151.895, 831.677 141.167 C 831.848 134.750, 832.218 128.515, 832.498 127.311 C 832.778 126.107, 832.534 124.830, 831.955 124.472 C 831.226 124.022, 831.222 123.437, 831.943 122.569 C 832.515 121.880, 832.696 121.029, 832.346 120.679 C 831.995 120.329, 831.790 117.108, 831.888 113.521 C 832.018 108.793, 831.715 106.996, 830.784 106.985 C 829.788 106.973, 829.775 106.795, 830.726 106.191 C 831.608 105.630, 831.978 100.661, 832.048 88.456 L 832.145 71.500 842.822 71.445 C 859.468 71.359, 864.168 68.876, 867.111 58.614 C 868.216 54.759, 866.596 48.648, 863.336 44.374 C 861.405 41.842, 859.687 40.878, 855.673 40.074 C 849.730 38.883, 851.535 38.932, 813.551 38.934 C 797.629 38.935, 784.392 38.725, 784.134 38.468 C 783.032 37.366, 785.573 36.460, 791.332 35.902 L 797.500 35.305 789.817 35.152 C 782.941 35.016, 782.068 35.210, 781.500 37 M 817.544 36.071 C 817.955 36.736, 819.725 36.884, 822.218 36.463 C 824.635 36.055, 827.079 36.239, 828.365 36.927 C 830.017 37.811, 831.405 37.738, 834.500 36.605 C 838.452 35.158, 838.371 35.140, 827.691 35.070 C 820.249 35.022, 817.088 35.333, 817.544 36.071 M 850.250 35.689 C 851.212 35.941, 852 36.564, 852 37.073 C 852 37.583, 853.180 38, 854.622 38 C 856.840 38, 857.053 37.768, 856 36.500 C 855.315 35.675, 853.348 35.052, 851.628 35.116 C 849.907 35.180, 849.288 35.438, 850.250 35.689 M 719.500 37 C 719.840 37.550, 721.404 38, 722.976 38 C 724.547 38, 726.040 38.563, 726.292 39.250 C 726.642 40.206, 727.042 40.225, 727.995 39.330 C 728.966 38.418, 728.388 37.924, 725.370 37.086 C 720.526 35.741, 718.705 35.714, 719.500 37 M 409.750 41.791 C 402.027 47.371, 402.500 43.576, 402.500 100 C 402.500 154.838, 402.525 155.101, 408.028 159.020 C 417.258 165.593, 431.246 161.228, 434.025 150.909 C 434.567 148.895, 434.988 136.336, 434.962 123.001 C 434.935 109.665, 435.143 98.524, 435.423 98.243 C 435.704 97.962, 437.411 99.472, 439.217 101.597 C 441.023 103.722, 444.207 107.230, 446.294 109.392 C 448.381 111.554, 451.456 115.051, 453.128 117.162 C 454.800 119.273, 457.004 121, 458.025 121 C 459.046 121, 460.160 121.450, 460.500 122 C 461.715 123.966, 468.001 123.028, 472.223 120.250 C 476.326 117.551, 482.920 111.156, 482.973 109.823 C 482.988 109.451, 482.212 108.941, 481.250 108.689 C 480.199 108.415, 480.624 108.186, 482.314 108.116 C 484.321 108.033, 486.567 106.495, 490.148 102.750 C 492.908 99.862, 494.903 98.329, 494.579 99.343 C 494.166 100.638, 494.587 101.341, 495.996 101.709 C 498.341 102.322, 498.695 104, 496.480 104 C 495.162 104, 494.975 106.875, 495.078 125.500 C 495.185 144.759, 495.369 147.003, 496.848 147.032 C 498.322 147.060, 498.308 147.209, 496.718 148.415 C 495.174 149.586, 495.103 150.149, 496.182 152.633 C 497.973 156.756, 502.790 160.866, 507.232 162.062 C 512.619 163.513, 520.291 160.748, 524.053 156 C 527.388 151.790, 528.806 144.246, 526.433 143.336 C 525.091 142.821, 525.086 142.562, 526.393 141.119 C 527.658 139.721, 527.840 133.126, 527.656 95.492 C 527.452 53.982, 527.329 51.275, 525.470 47.513 C 519.852 36.144, 505.435 36.126, 496 47.477 C 486.321 59.122, 465.612 82, 464.751 82 C 464.211 82, 462.714 80.763, 461.424 79.250 C 455.821 72.682, 442.409 57.414, 441.439 56.500 C 440.856 55.950, 438.016 52.707, 435.128 49.294 C 428.330 41.257, 424.624 38.989, 418.382 39.041 C 414.706 39.072, 412.573 39.751, 409.750 41.791 M 583.719 42.080 C 579.680 45.410, 578.517 47.653, 568.470 71.500 C 562.511 85.646, 555.360 102.109, 552.358 108.596 C 551.061 111.400, 550 114.071, 550 114.533 C 550 114.995, 547.936 119.902, 545.412 125.437 C 539.076 139.336, 539.208 139.011, 538.032 143.643 C 536.774 148.598, 537.417 150.736, 540.335 151.305 C 542.476 151.723, 542.475 151.729, 540.250 151.864 C 539.013 151.939, 538 152.255, 538 152.567 C 538 153.891, 543.346 160, 544.504 160 C 545.201 160, 547.060 160.672, 548.636 161.494 C 552.522 163.521, 555.208 163.383, 560.526 160.883 C 565.110 158.728, 569.788 153.605, 568.116 152.571 C 567.609 152.259, 568.552 150.551, 570.209 148.776 L 573.224 145.549 593.535 145.697 C 612.658 145.837, 613.967 145.967, 615.923 147.923 C 617.065 149.065, 618 150.865, 618 151.923 C 618 154.929, 623.679 160, 627.046 160 C 629.205 160, 629.791 160.380, 629.362 161.500 C 628.585 163.523, 633.813 163.523, 638.653 161.501 C 644.780 158.941, 648.220 154.767, 648.750 149.250 C 649.229 144.269, 647.346 138.698, 639.201 121 C 636.488 115.105, 634.177 109.802, 623.297 84.500 C 621.404 80.100, 619.168 74.925, 618.326 73 C 617.485 71.075, 616.337 68.375, 615.776 67 C 615.215 65.625, 614.187 63.375, 613.492 62 C 612.796 60.625, 610.794 56.037, 609.042 51.803 C 606.283 45.135, 605.276 43.766, 601.501 41.553 C 595.128 37.819, 588.656 38.010, 583.719 42.080 M 690.578 72.720 C 691.426 73.569, 691.723 77.472, 691.555 85.566 C 691.423 91.961, 691.530 98.319, 691.793 99.695 L 692.271 102.197 703.885 101.517 C 712.245 101.028, 716.168 100.369, 717.882 99.168 C 719.193 98.251, 721.218 96.944, 722.382 96.265 C 723.547 95.585, 724.185 95.023, 723.799 95.015 C 723.413 95.007, 723.944 93.111, 724.978 90.801 C 726.279 87.894, 726.572 86.069, 725.929 84.867 C 725.418 83.912, 725 82.297, 725 81.278 C 725 80.258, 722.865 77.641, 720.256 75.462 L 715.511 71.500 702.435 71.500 C 692.148 71.500, 689.619 71.760, 690.578 72.720 M 864.500 83.249 C 862.185 84.424, 857.657 85.488, 853.750 85.774 L 847 86.269 846.945 107.384 C 846.915 118.998, 846.525 134.827, 846.078 142.559 C 845.332 155.478, 845.040 156.978, 842.481 161.059 C 837.524 168.964, 830.705 174.236, 823.167 175.995 C 817.072 177.417, 807.694 176.692, 803.203 174.451 C 797.868 171.790, 791.543 165.326, 788.657 159.587 C 786.206 154.713, 785.694 152.178, 784.944 141.216 C 784.466 134.222, 784.058 118.979, 784.037 107.343 L 784 86.185 778.624 85.843 L 773.247 85.500 772.709 92.500 C 771.955 102.300, 767.480 114.882, 762.362 121.591 C 759.454 125.405, 759.454 125.411, 762.408 129.317 C 768.178 136.945, 768.819 154.192, 763.602 161.408 C 759.136 167.584, 751.954 173.621, 746.917 175.433 C 737.061 178.977, 723.600 175.440, 717 167.573 C 715.625 165.934, 712.422 162.386, 709.882 159.689 L 705.264 154.786 703.632 157.115 C 702.734 158.397, 702 159.825, 702 160.289 C 702 162.051, 696.574 168.141, 692.128 171.370 C 686.372 175.550, 678.667 177.471, 671.187 176.592 C 665.659 175.942, 657 172.421, 657 170.823 C 657 169.263, 651.624 170.004, 649.564 171.848 C 644.819 176.096, 635.693 177.988, 627.193 176.487 C 621.402 175.464, 611.721 169.046, 608.401 164.029 L 605.701 159.950 593.030 160.063 L 580.360 160.177 578.522 163.588 C 576.056 168.168, 567.602 174.407, 561.718 175.991 C 553.207 178.281, 542.380 175.906, 534 169.909 C 532.847 169.084, 531.147 169.651, 526.660 172.357 C 512.049 181.167, 495.307 177.020, 485.703 162.212 C 481.583 155.860, 481.119 154.053, 480.924 143.569 C 480.725 132.884, 480.748 132.909, 473.877 135.916 C 471.470 136.969, 468.150 137.954, 466.500 138.103 C 462.982 138.421, 453.243 136.202, 452.438 134.900 C 452.132 134.405, 451.293 134, 450.572 134 C 449.611 134, 449.126 136.727, 448.750 144.250 C 448.456 150.142, 447.588 155.988, 446.710 158 C 442.435 167.786, 432.511 175.437, 422.500 176.667 C 419.200 177.072, 416.078 177.284, 415.562 177.139 C 415.047 176.994, 413.309 176.612, 411.701 176.290 C 408.841 175.718, 408.792 175.779, 409.499 178.996 C 409.897 180.806, 410.927 183.910, 411.788 185.893 C 412.649 187.877, 413.451 190.005, 413.569 190.621 C 413.688 191.238, 414.515 192.856, 415.406 194.216 L 417.027 196.690 443.763 197.341 C 563.746 200.265, 794.670 200.651, 838.999 198.001 C 849.723 197.360, 858.599 196.734, 858.724 196.610 C 859.226 196.107, 864.855 136.698, 865.413 126 C 865.952 115.673, 868.104 94.669, 869.639 84.750 C 870.295 80.510, 870.041 80.435, 864.500 83.249 M 592.327 94.115 C 591.288 95.374, 588.078 103.532, 586.029 110.121 C 585.229 112.693, 585.318 112.753, 590.763 113.315 C 597.560 114.016, 602.425 113.220, 601.106 111.622 C 600.596 111.005, 599.864 108.813, 599.478 106.750 C 598.950 103.922, 599.112 102.984, 600.139 102.937 C 600.887 102.902, 600.515 102.477, 599.312 101.992 C 598.108 101.507, 596.301 99.225, 595.296 96.920 C 593.821 93.537, 593.249 92.997, 592.327 94.115" stroke="none" fill="#d12526" fill-rule="evenodd"/><path d="M 0 243.501 L 0 487.002 609.750 486.751 L 1219.500 486.500 1219.752 243.250 L 1220.004 -0 610.002 -0 L 0 0 0 243.501 M 0.492 244 C 0.492 377.925, 0.608 432.712, 0.750 365.750 C 0.892 298.787, 0.892 189.212, 0.750 122.250 C 0.608 55.287, 0.492 110.075, 0.492 244 M 883.742 7.288 C 879.686 10.879, 878.690 12.532, 876.992 18.497 C 875.896 22.345, 874.993 26.845, 874.985 28.497 C 874.976 30.149, 874.548 32.167, 874.032 32.982 C 873.241 34.233, 872.658 34.068, 870.297 31.921 C 868.759 30.522, 866.150 28.794, 864.500 28.080 C 855.585 24.225, 853.177 24.022, 816.299 24.011 C 778.344 23.999, 772.289 24.566, 766.097 28.707 C 764.669 29.663, 763.197 30.356, 762.827 30.248 C 762.457 30.140, 759.925 32.490, 757.200 35.471 L 752.247 40.891 749.949 38.446 C 748.685 37.101, 747.248 36, 746.754 36 C 746.261 36, 745.215 35.358, 744.431 34.573 C 742.305 32.448, 728.323 27.303, 719.896 25.545 C 714.690 24.458, 706.701 24.001, 692.915 24.001 C 675.835 24, 672.510 24.265, 666.915 26.071 C 663.387 27.211, 659.938 28.872, 659.250 29.762 C 658.562 30.653, 658 30.976, 658 30.479 C 658 29.982, 655.765 31.777, 653.033 34.468 C 645.340 42.045, 644.711 44.639, 644.059 71.500 C 643.421 97.761, 643.927 97.564, 635.042 75 C 633.851 71.975, 632.023 67.869, 630.981 65.875 C 629.938 63.881, 627.206 57.581, 624.911 51.875 C 620.271 40.338, 615.172 33.357, 608.552 29.478 C 595.058 21.569, 582.654 23.292, 571.346 34.644 C 567.961 38.042, 564.895 41.874, 564.533 43.161 C 564.171 44.447, 563.453 46.513, 562.937 47.750 C 562.422 48.987, 561.582 51.013, 561.070 52.250 C 560.559 53.487, 558.798 57.425, 557.157 61 C 555.517 64.575, 552.163 72.523, 549.706 78.662 C 541.992 97.929, 542 97.936, 542 72.337 C 542 45.726, 541.342 42.788, 533.618 34.897 C 528.155 29.316, 523.297 26.677, 515.409 25.008 C 511.336 24.146, 509.334 24.305, 503.649 25.943 C 499.881 27.028, 495.292 29.066, 493.450 30.470 C 490.391 32.804, 481.541 42.344, 470 55.750 C 467.525 58.625, 465.235 60.982, 464.911 60.989 C 464.588 60.995, 460.345 56.387, 455.483 50.750 C 437.875 30.335, 435.914 28.743, 424.405 25.527 C 418.501 23.877, 418.089 23.889, 411.310 25.908 C 399.894 29.307, 392.470 35.967, 389.241 45.705 C 387.974 49.528, 387.535 57.187, 387.076 83.500 L 386.500 116.500 382.660 105.500 C 380.549 99.450, 378.247 93.375, 377.546 92 C 376.844 90.625, 374.805 85.225, 373.014 80 C 371.223 74.775, 368.978 68.700, 368.025 66.500 C 367.072 64.300, 365.505 60.250, 364.541 57.500 C 356.628 34.909, 347.861 21.493, 336.992 15.339 C 328.055 10.279, 326.416 10.099, 273.816 8.395 C 246.394 7.506, 222.004 7.072, 219.615 7.430 C 216.892 7.839, 214.403 9.007, 212.942 10.562 C 210.745 12.901, 210.569 14.081, 209.867 31.271 C 209.457 41.297, 209.387 50.625, 209.712 52 C 210.037 53.375, 211.382 55.597, 212.702 56.937 C 214.987 59.258, 215.898 59.409, 231.801 60.102 C 240.985 60.502, 261.469 61.157, 277.321 61.557 C 299.142 62.108, 306.464 62.607, 307.468 63.611 C 308.197 64.340, 310.213 69.338, 311.947 74.718 C 313.682 80.098, 315.528 85.400, 316.049 86.500 C 316.571 87.600, 319.240 95.250, 321.980 103.500 C 324.720 111.750, 327.620 120.300, 328.425 122.500 C 334.289 138.538, 342.904 162.892, 347.172 175.500 C 349.964 183.750, 354.018 195.675, 356.179 202 C 358.341 208.325, 360.274 214.235, 360.475 215.134 C 360.676 216.033, 362.162 220.083, 363.777 224.134 C 366.364 230.624, 373.373 252.093, 373.117 252.745 C 373.064 252.880, 374.080 255.385, 375.374 258.312 C 376.669 261.238, 379.416 269.003, 381.479 275.566 C 383.542 282.130, 386.714 291.325, 388.527 296 C 390.341 300.675, 393.661 310.125, 395.905 317 C 398.148 323.875, 402.939 338.050, 406.551 348.500 C 410.162 358.950, 415.491 374.505, 418.393 383.066 C 421.294 391.627, 424.728 400.066, 426.024 401.819 C 430.221 407.495, 435.625 409.277, 450.247 409.805 C 462.828 410.259, 463.146 410.326, 462.537 412.386 C 462.194 413.549, 461.651 417.875, 461.332 422 C 460.675 430.500, 462.395 438.923, 466.384 446.735 C 470.088 453.989, 479.385 462.909, 488 467.475 C 495.492 471.446, 495.513 471.451, 507 471.442 C 518.421 471.433, 518.551 471.406, 526 467.522 C 535.995 462.309, 547.004 451.278, 549.878 443.596 C 553.190 434.746, 554.271 426.404, 553.068 418.991 C 552.489 415.421, 552.012 411.938, 552.008 411.250 C 552.002 410.257, 577.963 410, 678.500 410 C 750.376 410, 805 410.379, 805 410.877 C 805 411.360, 804.278 414.953, 803.395 418.863 C 800.375 432.233, 804.429 445.133, 815.090 456.083 C 822.398 463.589, 829.149 467.195, 839 468.855 C 856.003 471.720, 873.937 461.994, 882.984 445 C 886.291 438.789, 886.446 438.033, 886.472 428 C 886.488 422.225, 886.120 415.850, 885.654 413.834 L 884.809 410.168 902.154 409.834 C 918.237 409.524, 919.801 409.328, 923.632 407.132 C 925.994 405.779, 928.719 403.065, 929.993 400.799 C 932.062 397.117, 932.211 395.678, 932.080 380.667 C 932.002 371.775, 931.483 362.807, 930.927 360.737 C 929.582 355.730, 924.761 350.406, 920.214 348.906 C 917.349 347.960, 867.082 347.780, 694.534 348.095 L 472.540 348.500 469.288 339.500 C 467.500 334.550, 465.745 328.995, 465.389 327.156 L 464.742 323.812 575.121 324.442 C 635.829 324.788, 733.425 325.168, 792 325.286 L 898.500 325.500 905.676 323.149 C 915.034 320.082, 922.972 313.681, 928.184 305 C 933.495 296.154, 934.731 291.076, 935.970 273 C 936.554 264.475, 937.686 249.400, 938.485 239.500 C 939.284 229.600, 941.109 204.850, 942.540 184.500 C 943.971 164.150, 945.549 143.900, 946.045 139.500 C 947.020 130.860, 949.912 91.993, 952.445 53.500 C 953.313 40.300, 954.227 28.292, 954.474 26.815 C 955.251 22.179, 952.191 12.807, 948.700 9.131 C 943.109 3.244, 941.688 2.996, 913.782 3.038 L 888.500 3.077 883.742 7.288 M 412.500 35.661 C 409.222 36.535, 408.396 37.989, 411.587 37.270 C 415.668 36.349, 420.889 36.396, 425 37.388 C 426.925 37.853, 428.149 37.868, 427.721 37.421 C 426.289 35.928, 415.976 34.735, 412.500 35.661 M 504.250 36.031 C 501.073 37.308, 501.447 38.371, 504.750 37.450 C 506.262 37.028, 509.525 36.364, 512 35.975 L 516.500 35.267 511.500 35.197 C 508.750 35.158, 505.488 35.534, 504.250 36.031 M 594 36.346 C 597.575 37.045, 600.688 37.478, 600.917 37.308 C 601.988 36.516, 599.816 35.967, 593.919 35.540 L 587.500 35.076 594 36.346 M 675.841 36.569 C 678.779 37.359, 681.704 37.682, 682.341 37.286 C 684.400 36.009, 707 35.740, 707 36.994 C 707 37.612, 707.419 37.859, 707.931 37.543 C 708.443 37.226, 709.152 37.438, 709.508 38.012 C 709.948 38.725, 703.853 39.068, 690.327 39.090 C 667.152 39.127, 665.994 39.181, 666.624 40.201 C 666.886 40.625, 665.471 42.404, 663.478 44.154 C 661.114 46.229, 660.017 47.956, 660.321 49.120 C 660.578 50.101, 660.369 51.044, 659.857 51.214 C 659.299 51.400, 658.929 71.364, 658.934 101.051 C 658.943 157.100, 658.608 154.615, 666.869 159.916 C 672.557 163.566, 676.483 163.814, 682.221 160.887 C 689.430 157.209, 691.135 153.836, 691.513 142.500 C 691.623 139.200, 691.778 135.938, 691.857 135.250 C 691.957 134.375, 694.226 134, 699.416 134 L 706.832 134 710.147 138.185 C 711.970 140.487, 714.370 143.329, 715.481 144.500 C 716.591 145.671, 720.143 149.622, 723.374 153.279 C 730.571 161.427, 735.455 163.730, 741.218 161.694 C 745.910 160.036, 752.328 154.298, 751.604 152.410 C 751.306 151.634, 751.499 151, 752.031 151 C 752.564 151, 752.998 148.863, 752.996 146.250 C 752.992 140.924, 751.174 137.365, 744.411 129.448 L 740.095 124.396 745.446 118.693 C 748.388 115.556, 751.915 110.848, 753.284 108.231 C 756.421 102.232, 759.122 88.990, 758.495 82.682 C 757.178 69.427, 749.939 55.024, 744.576 54.985 C 742.917 54.972, 742.793 54.784, 743.960 54.046 C 745.210 53.255, 745.152 52.825, 743.555 51.061 C 742.529 49.927, 741.340 49, 740.911 49 C 740.483 49, 737.965 47.659, 735.316 46.020 C 729.170 42.218, 719.847 39.023, 714.593 38.918 L 710.500 38.837 713.750 37.416 C 715.538 36.634, 717 35.771, 717 35.497 C 717 35.224, 706.538 35.030, 693.750 35.066 C 671.662 35.128, 670.767 35.203, 675.841 36.569 M 781.500 37 C 781.074 38.344, 779.985 39.001, 778.183 39.004 C 774.393 39.009, 769.497 42.275, 766.628 46.712 C 764.538 49.943, 764.390 50.666, 765.618 51.632 C 766.865 52.611, 766.853 52.842, 765.529 53.350 C 763.176 54.253, 763.698 57.729, 767.073 63.628 C 768.764 66.583, 770.226 69.003, 770.323 69.006 C 770.421 69.009, 773.200 69.477, 776.500 70.046 C 779.800 70.615, 786.093 71.318, 790.485 71.608 C 794.876 71.898, 798.651 72.318, 798.873 72.539 C 799.095 72.761, 799.344 90.168, 799.427 111.221 C 799.565 146.264, 799.736 149.853, 801.448 153.675 C 803.320 157.854, 807.881 161.024, 813.968 162.378 C 817.947 163.263, 825.926 159.923, 828.807 156.167 C 831.158 153.102, 831.389 151.895, 831.677 141.167 C 831.848 134.750, 832.218 128.515, 832.498 127.311 C 832.778 126.107, 832.534 124.830, 831.955 124.472 C 831.226 124.022, 831.222 123.437, 831.943 122.569 C 832.515 121.880, 832.696 121.029, 832.346 120.679 C 831.995 120.329, 831.790 117.108, 831.888 113.521 C 832.018 108.793, 831.715 106.996, 830.784 106.985 C 829.788 106.973, 829.775 106.795, 830.726 106.191 C 831.608 105.630, 831.978 100.661, 832.048 88.456 L 832.145 71.500 842.822 71.445 C 859.468 71.359, 864.168 68.876, 867.111 58.614 C 868.216 54.759, 866.596 48.648, 863.336 44.374 C 861.405 41.842, 859.687 40.878, 855.673 40.074 C 849.730 38.883, 851.535 38.932, 813.551 38.934 C 797.629 38.935, 784.392 38.725, 784.134 38.468 C 783.032 37.366, 785.573 36.460, 791.332 35.902 L 797.500 35.305 789.817 35.152 C 782.941 35.016, 782.068 35.210, 781.500 37 M 817.544 36.071 C 817.955 36.736, 819.725 36.884, 822.218 36.463 C 824.635 36.055, 827.079 36.239, 828.365 36.927 C 830.017 37.811, 831.405 37.738, 834.500 36.605 C 838.452 35.158, 838.371 35.140, 827.691 35.070 C 820.249 35.022, 817.088 35.333, 817.544 36.071 M 850.250 35.689 C 851.212 35.941, 852 36.564, 852 37.073 C 852 37.583, 853.180 38, 854.622 38 C 856.840 38, 857.053 37.768, 856 36.500 C 855.315 35.675, 853.348 35.052, 851.628 35.116 C 849.907 35.180, 849.288 35.438, 850.250 35.689 M 719.500 37 C 719.840 37.550, 721.404 38, 722.976 38 C 724.547 38, 726.040 38.563, 726.292 39.250 C 726.642 40.206, 727.042 40.225, 727.995 39.330 C 728.966 38.418, 728.388 37.924, 725.370 37.086 C 720.526 35.741, 718.705 35.714, 719.500 37 M 409.750 41.791 C 402.027 47.371, 402.500 43.576, 402.500 100 C 402.500 154.838, 402.525 155.101, 408.028 159.020 C 417.258 165.593, 431.246 161.228, 434.025 150.909 C 434.567 148.895, 434.988 136.336, 434.962 123.001 C 434.935 109.665, 435.143 98.524, 435.423 98.243 C 435.704 97.962, 437.411 99.472, 439.217 101.597 C 441.023 103.722, 444.207 107.230, 446.294 109.392 C 448.381 111.554, 451.456 115.051, 453.128 117.162 C 454.800 119.273, 457.004 121, 458.025 121 C 459.046 121, 460.160 121.450, 460.500 122 C 461.715 123.966, 468.001 123.028, 472.223 120.250 C 476.326 117.551, 482.920 111.156, 482.973 109.823 C 482.988 109.451, 482.212 108.941, 481.250 108.689 C 480.199 108.415, 480.624 108.186, 482.314 108.116 C 484.321 108.033, 486.567 106.495, 490.148 102.750 C 492.908 99.862, 494.903 98.329, 494.579 99.343 C 494.166 100.638, 494.587 101.341, 495.996 101.709 C 498.341 102.322, 498.695 104, 496.480 104 C 495.162 104, 494.975 106.875, 495.078 125.500 C 495.185 144.759, 495.369 147.003, 496.848 147.032 C 498.322 147.060, 498.308 147.209, 496.718 148.415 C 495.174 149.586, 495.103 150.149, 496.182 152.633 C 497.973 156.756, 502.790 160.866, 507.232 162.062 C 512.619 163.513, 520.291 160.748, 524.053 156 C 527.388 151.790, 528.806 144.246, 526.433 143.336 C 525.091 142.821, 525.086 142.562, 526.393 141.119 C 527.658 139.721, 527.840 133.126, 527.656 95.492 C 527.452 53.982, 527.329 51.275, 525.470 47.513 C 519.852 36.144, 505.435 36.126, 496 47.477 C 486.321 59.122, 465.612 82, 464.751 82 C 464.211 82, 462.714 80.763, 461.424 79.250 C 455.821 72.682, 442.409 57.414, 441.439 56.500 C 440.856 55.950, 438.016 52.707, 435.128 49.294 C 428.330 41.257, 424.624 38.989, 418.382 39.041 C 414.706 39.072, 412.573 39.751, 409.750 41.791 M 583.719 42.080 C 579.680 45.410, 578.517 47.653, 568.470 71.500 C 562.511 85.646, 555.360 102.109, 552.358 108.596 C 551.061 111.400, 550 114.071, 550 114.533 C 550 114.995, 547.936 119.902, 545.412 125.437 C 539.076 139.336, 539.208 139.011, 538.032 143.643 C 536.774 148.598, 537.417 150.736, 540.335 151.305 C 542.476 151.723, 542.475 151.729, 540.250 151.864 C 539.013 151.939, 538 152.255, 538 152.567 C 538 153.891, 543.346 160, 544.504 160 C 545.201 160, 547.060 160.672, 548.636 161.494 C 552.522 163.521, 555.208 163.383, 560.526 160.883 C 565.110 158.728, 569.788 153.605, 568.116 152.571 C 567.609 152.259, 568.552 150.551, 570.209 148.776 L 573.224 145.549 593.535 145.697 C 612.658 145.837, 613.967 145.967, 615.923 147.923 C 617.065 149.065, 618 150.865, 618 151.923 C 618 154.929, 623.679 160, 627.046 160 C 629.205 160, 629.791 160.380, 629.362 161.500 C 628.585 163.523, 633.813 163.523, 638.653 161.501 C 644.780 158.941, 648.220 154.767, 648.750 149.250 C 649.229 144.269, 647.346 138.698, 639.201 121 C 636.488 115.105, 634.177 109.802, 623.297 84.500 C 621.404 80.100, 619.168 74.925, 618.326 73 C 617.485 71.075, 616.337 68.375, 615.776 67 C 615.215 65.625, 614.187 63.375, 613.492 62 C 612.796 60.625, 610.794 56.037, 609.042 51.803 C 606.283 45.135, 605.276 43.766, 601.501 41.553 C 595.128 37.819, 588.656 38.010, 583.719 42.080 M 690.578 72.720 C 691.426 73.569, 691.723 77.472, 691.555 85.566 C 691.423 91.961, 691.530 98.319, 691.793 99.695 L 692.271 102.197 703.885 101.517 C 712.245 101.028, 716.168 100.369, 717.882 99.168 C 719.193 98.251, 721.218 96.944, 722.382 96.265 C 723.547 95.585, 724.185 95.023, 723.799 95.015 C 723.413 95.007, 723.944 93.111, 724.978 90.801 C 726.279 87.894, 726.572 86.069, 725.929 84.867 C 725.418 83.912, 725 82.297, 725 81.278 C 725 80.258, 722.865 77.641, 720.256 75.462 L 715.511 71.500 702.435 71.500 C 692.148 71.500, 689.619 71.760, 690.578 72.720 M 864.500 83.249 C 862.185 84.424, 857.657 85.488, 853.750 85.774 L 847 86.269 846.945 107.384 C 846.915 118.998, 846.525 134.827, 846.078 142.559 C 845.332 155.478, 845.040 156.978, 842.481 161.059 C 837.524 168.964, 830.705 174.236, 823.167 175.995 C 817.072 177.417, 807.694 176.692, 803.203 174.451 C 797.868 171.790, 791.543 165.326, 788.657 159.587 C 786.206 154.713, 785.694 152.178, 784.944 141.216 C 784.466 134.222, 784.058 118.979, 784.037 107.343 L 784 86.185 778.624 85.843 L 773.247 85.500 772.709 92.500 C 771.955 102.300, 767.480 114.882, 762.362 121.591 C 759.454 125.405, 759.454 125.411, 762.408 129.317 C 768.178 136.945, 768.819 154.192, 763.602 161.408 C 759.136 167.584, 751.954 173.621, 746.917 175.433 C 737.061 178.977, 723.600 175.440, 717 167.573 C 715.625 165.934, 712.422 162.386, 709.882 159.689 L 705.264 154.786 703.632 157.115 C 702.734 158.397, 702 159.825, 702 160.289 C 702 162.051, 696.574 168.141, 692.128 171.370 C 686.372 175.550, 678.667 177.471, 671.187 176.592 C 665.659 175.942, 657 172.421, 657 170.823 C 657 169.263, 651.624 170.004, 649.564 171.848 C 644.819 176.096, 635.693 177.988, 627.193 176.487 C 621.402 175.464, 611.721 169.046, 608.401 164.029 L 605.701 159.950 593.030 160.063 L 580.360 160.177 578.522 163.588 C 576.056 168.168, 567.602 174.407, 561.718 175.991 C 553.207 178.281, 542.380 175.906, 534 169.909 C 532.847 169.084, 531.147 169.651, 526.660 172.357 C 512.049 181.167, 495.307 177.020, 485.703 162.212 C 481.583 155.860, 481.119 154.053, 480.924 143.569 C 480.725 132.884, 480.748 132.909, 473.877 135.916 C 471.470 136.969, 468.150 137.954, 466.500 138.103 C 462.982 138.421, 453.243 136.202, 452.438 134.900 C 452.132 134.405, 451.293 134, 450.572 134 C 449.611 134, 449.126 136.727, 448.750 144.250 C 448.456 150.142, 447.588 155.988, 446.710 158 C 442.435 167.786, 432.511 175.437, 422.500 176.667 C 419.200 177.072, 416.078 177.284, 415.562 177.139 C 415.047 176.994, 413.309 176.612, 411.701 176.290 C 408.841 175.718, 408.792 175.779, 409.499 178.996 C 409.897 180.806, 410.927 183.910, 411.788 185.893 C 412.649 187.877, 413.451 190.005, 413.569 190.621 C 413.688 191.238, 414.515 192.856, 415.406 194.216 L 417.027 196.690 443.763 197.341 C 563.746 200.265, 794.670 200.651, 838.999 198.001 C 849.723 197.360, 858.599 196.734, 858.724 196.610 C 859.226 196.107, 864.855 136.698, 865.413 126 C 865.952 115.673, 868.104 94.669, 869.639 84.750 C 870.295 80.510, 870.041 80.435, 864.500 83.249 M 592.327 94.115 C 591.288 95.374, 588.078 103.532, 586.029 110.121 C 585.229 112.693, 585.318 112.753, 590.763 113.315 C 597.560 114.016, 602.425 113.220, 601.106 111.622 C 600.596 111.005, 599.864 108.813, 599.478 106.750 C 598.950 103.922, 599.112 102.984, 600.139 102.937 C 600.887 102.902, 600.515 102.477, 599.312 101.992 C 598.108 101.507, 596.301 99.225, 595.296 96.920 C 593.821 93.537, 593.249 92.997, 592.327 94.115" stroke="none" fill="#f4f3f3" fill-rule="evenodd"/></svg>